<?xml version="1.0" encoding="UTF-8" standalone="no"?>
<!-- Created with Inkscape (http://www.inkscape.org/) -->

<svg
   width="200.85609mm"
   height="100.85609mm"
   viewBox="0 0 200.85609 100.85609"
   version="1.1"
   id="svg1574"
   xml:space="preserve"
   inkscape:version="1.2.1 (9c6d41e410, 2022-07-14)"
   sodipodi:docname="project.svg"
   inkscape:export-filename="project.png"
   inkscape:export-xdpi="96"
   inkscape:export-ydpi="96"
   xmlns:inkscape="http://www.inkscape.org/namespaces/inkscape"
   xmlns:sodipodi="http://sodipodi.sourceforge.net/DTD/sodipodi-0.dtd"
   xmlns:xlink="http://www.w3.org/1999/xlink"
   xmlns="http://www.w3.org/2000/svg"
   xmlns:svg="http://www.w3.org/2000/svg"><sodipodi:namedview
     id="namedview1576"
     pagecolor="#ffffff"
     bordercolor="#000000"
     borderopacity="0.25"
     inkscape:showpageshadow="2"
     inkscape:pageopacity="0.0"
     inkscape:pagecheckerboard="0"
     inkscape:deskcolor="#d1d1d1"
     inkscape:document-units="mm"
     showgrid="false"
     inkscape:zoom="0.5"
     inkscape:cx="-90"
     inkscape:cy="172"
     inkscape:window-width="1920"
     inkscape:window-height="1017"
     inkscape:window-x="2936"
     inkscape:window-y="187"
     inkscape:window-maximized="1"
     inkscape:current-layer="layer1" /><defs
     id="defs1571"><linearGradient
       inkscape:collect="always"
       id="linearGradient12757"><stop
         style="stop-color:#da6666;stop-opacity:1;"
         offset="0"
         id="stop12753" /><stop
         style="stop-color:#dfdb7f;stop-opacity:1;"
         offset="0.28399125"
         id="stop12761" /><stop
         style="stop-color:#77c556;stop-opacity:1;"
         offset="0.48739034"
         id="stop14578" /><stop
         style="stop-color:#7d7db2;stop-opacity:1;"
         offset="0.70422149"
         id="stop14943" /><stop
         style="stop-color:#d679bf;stop-opacity:1;"
         offset="0.91447371"
         id="stop12755" /></linearGradient><linearGradient
       inkscape:collect="always"
       xlink:href="#linearGradient12757"
       id="linearGradient12759"
       x1="-0.42804447"
       y1="50"
       x2="200.42805"
       y2="50"
       gradientUnits="userSpaceOnUse"
       spreadMethod="repeat" /></defs><g
     inkscape:groupmode="layer"
     id="layer2"
     inkscape:label="Hintergrund"
     transform="translate(0.42804447,0.42804447)"><rect
       style="fill:url(#linearGradient12759);fill-opacity:1;stroke:#bbef7d;stroke-width:1.5;stroke-dasharray:none;stroke-opacity:1;paint-order:stroke fill markers"
       id="rect3314"
       width="199.35609"
       height="99.356087"
       x="0.32195553"
       y="0.32195553" /></g><g
     inkscape:label="Ebene 1"
     inkscape:groupmode="layer"
     id="layer1"
     transform="translate(0.42804447,0.42804447)"><path
       d="m 99.571766,7.5094557 a 20.000028,20.000028 0 1 1 0,40.0000563 20.000028,20.000028 0 1 1 0,-40.0000563 z M 55.821786,17.509475 c 3.45317,0 6.25003,2.796873 6.25003,6.250005 v 6.250004 12.500028 6.281243 c 0,2.656256 1.04693,5.203131 2.92177,7.078138 l 7.98445,7.984395 c 1.29638,1.296946 3.32806,1.499907 4.84385,0.484347 2.01562,-1.343813 2.29682,-4.203124 0.57826,-5.906257 l -2.37505,-2.375001 -4.99995,-5 c -1.95307,-1.95313 -1.95307,-5.125008 0,-7.078138 1.95308,-1.95313 5.12505,-1.95313 7.07812,0 l 4.99994,5 2.37506,2.375001 v 0 l 3.9532,3.953146 c 3.28121,3.281238 5.12486,7.734378 5.12486,12.375001 v 12.328154 c 0,4.140629 -3.35925,7.500009 -7.49991,7.500009 h -10.40638 c -2.65625,0 -5.20309,-1.04693 -7.07812,-2.92188 L 53.962636,68.978277 c -2.81254,-2.812501 -4.39068,-6.62501 -4.39068,-10.609393 V 42.509493 32.509475 23.759461 c 0,-3.453132 2.79685,-6.250005 6.25002,-6.250005 z m 87.500154,0 c 3.45317,0 6.25002,2.796873 6.25002,6.250005 v 8.750013 10.000019 15.859391 c 0,3.984383 -1.57796,7.796891 -4.39068,10.609393 l -15.60947,15.609393 c -1.87465,1.875026 -4.42187,2.92188 -7.07812,2.92188 h -10.42187 c -4.14067,0 -7.49992,-3.35938 -7.49992,-7.500009 V 67.681406 c 0,-4.640623 1.84441,-9.093763 5.12486,-12.375002 l 3.9532,-3.953145 v 0 l 2.37506,-2.375001 4.99994,-5 c 1.95308,-1.953131 5.12505,-1.953131 7.07812,0 1.95326,1.95313 1.95326,5.125008 0,7.078138 l -4.99994,5 -2.37506,2.375001 c -1.7178,1.718743 -1.43811,4.562501 0.57827,5.906257 1.51559,1.01556 3.5469,0.812599 4.84385,-0.484347 l 7.98445,-7.984395 c 1.87465,-1.875026 2.92177,-4.421883 2.92177,-7.078138 V 42.509531 30.009503 23.759499 c 0,-3.453132 2.79685,-6.250005 6.25002,-6.250005 z"
       id="path17856"
       style="stroke-width:0.15625;fill:#0d2f7d;fill-opacity:1" /></g></svg>
