<?xml version="1.0" encoding="utf-8"?>
<!-- Generator: Adobe Illustrator 27.5.0, SVG Export Plug-In . SVG Version: 6.00 Build 0)  -->
<svg version="1.1" id="Ebene_1" xmlns="http://www.w3.org/2000/svg" xmlns:xlink="http://www.w3.org/1999/xlink" x="0px" y="0px"
	 viewBox="0 0 335 87" style="enable-background:new 0 0 335 87;" xml:space="preserve">
<style type="text/css">
	.st0{fill:#BBEF6D;}
	.st1{fill:#0F2D7F;}
</style>
<g>
	<g>
		<path class="st0" d="M24.6,76.9h9.9c15.1,0,27.4-12.3,27.4-27.4V10H44.8c-11.1,0-20.2,9-20.2,20.2V76.9z"/>
		<path class="st1" d="M37.4,77H26.2C15.2,77,10,68.1,10,57.1V37h14.5c8.1,0,12.9,6.6,12.9,14.7V77z"/>
	</g>
	<g>
		<path class="st1" d="M90.4,31c0-0.8,0.2-1.6,0.5-2.3c0.3-0.7,0.7-1.3,1.3-1.9s1.3-0.9,2.1-1.2s1.8-0.4,2.9-0.4
			c0.5,0,0.9,0,1.4,0.1c0.5,0.1,0.9,0.1,1.4,0.2s0.9,0.2,1.2,0.4s0.7,0.3,1,0.5l-1.3,2.1c-0.6-0.3-1.2-0.5-1.7-0.6
			c-0.6-0.1-1.1-0.2-1.7-0.2c-0.6,0-1.2,0.1-1.7,0.3c-0.5,0.2-1,0.4-1.3,0.7c-0.4,0.3-0.6,0.7-0.8,1.1c-0.2,0.4-0.3,0.9-0.3,1.3
			c0,0.5,0.1,0.9,0.3,1.3c0.2,0.4,0.5,0.8,0.8,1.1c0.4,0.3,0.8,0.5,1.3,0.7s1.1,0.3,1.7,0.3c0.7,0,1.4-0.1,2-0.3
			c0.6-0.2,1.2-0.5,1.7-0.8l1.3,2.1c-0.3,0.2-0.7,0.4-1.1,0.6s-0.8,0.3-1.3,0.5c-0.4,0.1-0.9,0.2-1.4,0.3c-0.5,0.1-1,0.1-1.5,0.1
			c-1.1,0-2-0.1-2.9-0.4c-0.9-0.3-1.6-0.7-2.2-1.2c-0.6-0.5-1-1.1-1.4-1.8C90.6,32.6,90.4,31.9,90.4,31z"/>
		<path class="st1" d="M105.9,33.1c0-0.5,0.1-1,0.4-1.5c0.2-0.4,0.6-0.8,1.1-1.1c0.5-0.3,1.1-0.6,1.8-0.7c0.7-0.2,1.5-0.3,2.5-0.3
			c0.7,0,1.4,0.1,2.2,0.2s1.6,0.3,2.4,0.5c0-0.4-0.1-0.7-0.3-1c-0.2-0.3-0.4-0.6-0.8-0.8c-0.3-0.2-0.7-0.4-1.2-0.5s-1-0.2-1.6-0.2
			c-0.3,0-0.7,0-1,0.1s-0.8,0.1-1.2,0.2c-0.4,0.1-0.8,0.2-1.2,0.3c-0.4,0.1-0.8,0.3-1.1,0.4l-0.9-2.3c0.4-0.2,0.9-0.3,1.4-0.4
			c0.5-0.1,1-0.2,1.5-0.3s1-0.2,1.5-0.2c0.5-0.1,1-0.1,1.5-0.1c2.1,0,3.7,0.5,4.7,1.6s1.5,2.7,1.5,4.9v4.9h-2.8v-1.1
			c-0.3,0.2-0.6,0.3-1,0.5c-0.3,0.2-0.7,0.3-1.1,0.4c-0.4,0.1-0.8,0.2-1.3,0.3s-1,0.1-1.5,0.1c-0.9,0-1.6-0.1-2.3-0.3
			c-0.7-0.2-1.2-0.5-1.7-0.8c-0.4-0.3-0.8-0.7-1-1.2C106,34.1,105.9,33.6,105.9,33.1z M108.9,33c0,0.2,0,0.4,0.1,0.5
			c0.1,0.2,0.2,0.3,0.5,0.4s0.5,0.2,0.8,0.3c0.3,0.1,0.7,0.1,1.2,0.1c0.5,0,1,0,1.4-0.1c0.5-0.1,0.9-0.2,1.3-0.4
			c0.4-0.1,0.8-0.3,1.1-0.5c0.3-0.2,0.6-0.4,0.8-0.6v-0.5c-0.4-0.1-0.9-0.2-1.3-0.3c-0.4-0.1-0.8-0.1-1.2-0.2
			c-0.4,0-0.7-0.1-1.1-0.1s-0.6,0-0.9,0c-0.5,0-1,0-1.3,0.1c-0.3,0.1-0.6,0.2-0.8,0.3c-0.2,0.1-0.4,0.3-0.5,0.4S108.9,32.8,108.9,33
			z"/>
		<path class="st1" d="M123.5,25.4h2.8v1c0.7-0.4,1.4-0.7,2.1-0.9c0.7-0.2,1.3-0.3,2-0.3c0.9,0,1.7,0.1,2.5,0.4s1.4,0.7,1.9,1.3
			c0.4-0.3,0.8-0.6,1.2-0.8c0.4-0.2,0.8-0.4,1.2-0.5s0.8-0.2,1.2-0.3c0.4-0.1,0.8-0.1,1.3-0.1c0.9,0,1.8,0.1,2.5,0.4
			c0.8,0.3,1.4,0.6,1.9,1.1c0.5,0.5,0.9,1.1,1.2,1.9c0.3,0.7,0.4,1.6,0.4,2.6v5.5h-2.8v-5.1c0-0.6-0.1-1.2-0.3-1.7
			c-0.2-0.5-0.4-0.9-0.7-1.2s-0.7-0.6-1.1-0.8c-0.4-0.2-0.9-0.3-1.4-0.3c-0.3,0-0.6,0-0.9,0.1s-0.6,0.1-0.9,0.3
			c-0.3,0.1-0.5,0.3-0.8,0.4s-0.5,0.4-0.6,0.6v7.6h-2.8v-5.1c0-0.6-0.1-1.2-0.3-1.7s-0.4-0.9-0.7-1.2c-0.3-0.3-0.7-0.6-1.1-0.8
			c-0.4-0.2-0.9-0.3-1.5-0.3c-0.3,0-0.6,0-1,0.1c-0.3,0.1-0.6,0.2-0.9,0.3c-0.3,0.1-0.6,0.3-0.8,0.4c-0.3,0.2-0.5,0.4-0.7,0.6v7.6
			h-2.8V25.4z"/>
		<path class="st1" d="M152.8,41.2H150V25.4h2.8v1.1c0.2-0.2,0.5-0.3,0.9-0.5c0.3-0.2,0.7-0.3,1.1-0.4c0.4-0.1,0.8-0.2,1.2-0.3
			s0.8-0.1,1.2-0.1c1,0,1.8,0.1,2.6,0.4c0.8,0.3,1.5,0.7,2.1,1.2c0.6,0.5,1,1.1,1.3,1.8c0.3,0.7,0.5,1.5,0.5,2.4
			c0,0.9-0.2,1.7-0.5,2.4c-0.3,0.7-0.8,1.3-1.4,1.8c-0.6,0.5-1.3,0.9-2.1,1.2c-0.8,0.3-1.7,0.4-2.7,0.4c-0.4,0-0.8,0-1.2-0.1
			c-0.4-0.1-0.8-0.1-1.1-0.2c-0.4-0.1-0.7-0.2-1-0.3c-0.3-0.1-0.6-0.3-0.9-0.4V41.2z M152.8,33.1c0.3,0.2,0.6,0.4,0.9,0.6
			c0.3,0.2,0.6,0.3,1,0.4c0.3,0.1,0.7,0.2,1,0.2s0.7,0.1,1,0.1c0.6,0,1.2-0.1,1.7-0.3c0.5-0.2,0.9-0.4,1.3-0.7
			c0.3-0.3,0.6-0.7,0.8-1.1c0.2-0.4,0.3-0.9,0.3-1.3c0-0.5-0.1-0.9-0.3-1.3s-0.4-0.8-0.8-1.1c-0.3-0.3-0.8-0.5-1.2-0.7
			s-1-0.3-1.6-0.3c-0.4,0-0.8,0-1.1,0.1c-0.4,0.1-0.7,0.2-1.1,0.3c-0.4,0.1-0.7,0.3-1,0.5c-0.3,0.2-0.6,0.4-0.8,0.6V33.1z"/>
		<path class="st1" d="M167.2,25.4h2.8v5.5c0,0.5,0.1,1,0.2,1.4s0.3,0.8,0.6,1.1c0.3,0.3,0.6,0.5,1.1,0.7c0.5,0.2,1,0.3,1.7,0.3
			c0.3,0,0.7,0,1-0.1s0.7-0.2,1-0.3c0.3-0.1,0.6-0.3,0.9-0.4c0.3-0.2,0.5-0.4,0.7-0.6v-7.6h2.8v11.3h-2.8v-1
			c-0.7,0.4-1.4,0.7-2.1,0.9c-0.7,0.2-1.4,0.3-2,0.3c-1,0-1.9-0.1-2.6-0.4c-0.7-0.2-1.3-0.6-1.8-1.1s-0.8-1.1-1-1.7
			c-0.2-0.7-0.3-1.5-0.3-2.4V25.4z"/>
		<path class="st1" d="M184.7,33.2c0.8,0.5,1.6,0.8,2.5,1c0.9,0.2,1.9,0.3,2.8,0.3c0.6,0,1.2,0,1.6-0.1c0.4-0.1,0.8-0.2,1-0.3
			c0.3-0.1,0.4-0.3,0.6-0.5c0.1-0.2,0.2-0.4,0.2-0.5c0-0.3-0.1-0.5-0.3-0.7c-0.2-0.2-0.6-0.3-1.1-0.3c-0.2,0-0.5,0-0.8,0
			c-0.3,0-0.6,0.1-0.9,0.1c-0.3,0-0.6,0.1-1,0.1c-0.3,0-0.7,0-1,0c-0.8,0-1.4-0.1-2-0.2c-0.5-0.2-1-0.4-1.3-0.7s-0.6-0.6-0.7-1
			c-0.2-0.4-0.2-0.8-0.2-1.3c0-0.6,0.1-1.1,0.4-1.6c0.3-0.5,0.6-0.9,1.1-1.3c0.5-0.4,1.1-0.6,1.8-0.8c0.7-0.2,1.5-0.3,2.4-0.3
			c0.5,0,0.9,0,1.4,0.1c0.5,0.1,1,0.1,1.5,0.2c0.5,0.1,0.9,0.2,1.4,0.3c0.4,0.1,0.8,0.2,1.2,0.4l-0.9,2.2c-0.7-0.3-1.4-0.5-2.2-0.6
			s-1.5-0.2-2.2-0.2c-0.5,0-1,0-1.3,0.1s-0.7,0.2-0.9,0.3c-0.2,0.1-0.4,0.3-0.5,0.4s-0.2,0.3-0.2,0.5c0,0.1,0,0.3,0.1,0.4
			c0.1,0.1,0.1,0.2,0.3,0.3s0.3,0.1,0.5,0.2c0.2,0,0.4,0.1,0.7,0.1c0.3,0,0.6,0,0.8,0c0.3,0,0.6-0.1,0.9-0.1c0.3,0,0.7-0.1,1-0.1
			c0.3,0,0.7,0,1.1,0c0.7,0,1.3,0.1,1.8,0.2s0.9,0.4,1.3,0.7s0.6,0.6,0.7,1s0.2,0.8,0.2,1.3c0,0.6-0.1,1.1-0.4,1.6
			c-0.3,0.5-0.7,0.9-1.2,1.3c-0.5,0.4-1.2,0.7-2,0.9c-0.8,0.2-1.7,0.3-2.8,0.3c-0.6,0-1.3,0-1.9-0.1s-1.2-0.2-1.7-0.3
			c-0.5-0.1-1.1-0.3-1.5-0.5s-0.9-0.4-1.3-0.6L184.7,33.2z"/>
		<path class="st1" d="M91.1,48.3h2.8v5.4c0.6-0.3,1.3-0.6,2-0.8c0.7-0.2,1.5-0.3,2.3-0.3c0.9,0,1.8,0.1,2.5,0.4
			c0.7,0.3,1.4,0.7,1.9,1.2c0.5,0.5,0.9,1.1,1.2,1.9c0.3,0.7,0.4,1.6,0.4,2.5v5.5h-2.8v-5.4c0-0.5-0.1-1-0.3-1.5
			c-0.2-0.4-0.4-0.8-0.8-1.1c-0.3-0.3-0.7-0.6-1.2-0.7s-1-0.3-1.6-0.3c-0.7,0-1.4,0.1-2,0.3c-0.6,0.2-1.2,0.5-1.6,0.9v7.8h-2.8V48.3
			z"/>
		<path class="st1" d="M107.6,58.5c0-0.8,0.2-1.5,0.5-2.2c0.3-0.7,0.8-1.3,1.3-1.8s1.3-1,2.2-1.3c0.8-0.3,1.8-0.5,2.9-0.5
			c1.1,0,2,0.2,2.9,0.5c0.9,0.3,1.6,0.8,2.2,1.3c0.6,0.6,1.1,1.2,1.4,2c0.3,0.8,0.5,1.6,0.5,2.4c0,0.1,0,0.2,0,0.3s0,0.2,0,0.3
			h-10.6c0.1,0.3,0.3,0.6,0.6,0.9s0.6,0.5,1,0.7s0.9,0.4,1.4,0.5c0.5,0.1,1.1,0.2,1.8,0.2s1.3-0.1,1.9-0.2s1.3-0.3,1.8-0.5l1,2.2
			c-0.4,0.2-0.7,0.3-1.1,0.5c-0.4,0.1-0.8,0.2-1.2,0.3c-0.4,0.1-0.8,0.2-1.3,0.2c-0.4,0-0.9,0.1-1.4,0.1c-1.3,0-2.4-0.2-3.3-0.5
			c-1-0.3-1.8-0.7-2.4-1.2c-0.6-0.5-1.1-1.1-1.4-1.9S107.6,59.3,107.6,58.5z M118.4,57.4c-0.1-0.3-0.3-0.6-0.5-0.9
			c-0.2-0.3-0.5-0.5-0.8-0.7s-0.7-0.4-1.1-0.5s-0.9-0.2-1.4-0.2c-0.5,0-1,0.1-1.5,0.2c-0.4,0.1-0.8,0.3-1.2,0.5
			c-0.3,0.2-0.6,0.4-0.8,0.7c-0.2,0.3-0.4,0.5-0.5,0.8H118.4z"/>
		<path class="st1" d="M125.1,48.3h2.8V54c0.2-0.2,0.5-0.3,0.9-0.5c0.3-0.2,0.7-0.3,1.1-0.4s0.8-0.2,1.2-0.3s0.8-0.1,1.2-0.1
			c1,0,1.8,0.1,2.6,0.4c0.8,0.3,1.5,0.7,2.1,1.2c0.6,0.5,1,1.1,1.3,1.8c0.3,0.7,0.5,1.5,0.5,2.3c0,0.9-0.2,1.7-0.5,2.4
			c-0.3,0.7-0.8,1.3-1.4,1.9c-0.6,0.5-1.3,0.9-2.1,1.2c-0.8,0.3-1.7,0.4-2.7,0.4c-0.4,0-0.8,0-1.2-0.1c-0.4-0.1-0.8-0.1-1.1-0.2
			c-0.4-0.1-0.7-0.2-1-0.3c-0.3-0.1-0.6-0.3-0.9-0.4v0.8h-2.8V48.3z M127.9,60.6c0.3,0.2,0.6,0.4,0.9,0.6c0.3,0.2,0.6,0.3,1,0.4
			c0.3,0.1,0.7,0.2,1,0.2s0.7,0.1,1,0.1c0.6,0,1.2-0.1,1.7-0.3s0.9-0.4,1.3-0.7c0.3-0.3,0.6-0.7,0.8-1.1s0.3-0.9,0.3-1.3
			c0-0.5-0.1-0.9-0.3-1.3s-0.4-0.8-0.8-1.1c-0.3-0.3-0.8-0.5-1.2-0.7s-1-0.3-1.6-0.3c-0.4,0-0.8,0-1.1,0.1s-0.7,0.2-1.1,0.3
			c-0.4,0.1-0.7,0.3-1,0.5c-0.3,0.2-0.6,0.4-0.8,0.6V60.6z"/>
		<path class="st1" d="M141.7,58.5c0-0.8,0.2-1.5,0.5-2.2c0.3-0.7,0.8-1.3,1.3-1.8s1.3-1,2.2-1.3c0.8-0.3,1.8-0.5,2.9-0.5
			c1.1,0,2,0.2,2.9,0.5c0.9,0.3,1.6,0.8,2.2,1.3c0.6,0.6,1.1,1.2,1.4,2c0.3,0.8,0.5,1.6,0.5,2.4c0,0.1,0,0.2,0,0.3s0,0.2,0,0.3
			h-10.6c0.1,0.3,0.3,0.6,0.6,0.9s0.6,0.5,1,0.7s0.9,0.4,1.4,0.5c0.5,0.1,1.1,0.2,1.8,0.2s1.3-0.1,1.9-0.2s1.3-0.3,1.8-0.5l1,2.2
			c-0.4,0.2-0.7,0.3-1.1,0.5c-0.4,0.1-0.8,0.2-1.2,0.3c-0.4,0.1-0.8,0.2-1.3,0.2c-0.4,0-0.9,0.1-1.4,0.1c-1.3,0-2.4-0.2-3.3-0.5
			c-1-0.3-1.8-0.7-2.4-1.2c-0.6-0.5-1.1-1.1-1.4-1.9S141.7,59.3,141.7,58.5z M152.5,57.4c-0.1-0.3-0.3-0.6-0.5-0.9
			c-0.2-0.3-0.5-0.5-0.8-0.7s-0.7-0.4-1.1-0.5s-0.9-0.2-1.4-0.2c-0.5,0-1,0.1-1.5,0.2c-0.4,0.1-0.8,0.3-1.2,0.5
			c-0.3,0.2-0.6,0.4-0.8,0.7c-0.2,0.3-0.4,0.5-0.5,0.8H152.5z"/>
		<path class="st1" d="M159.3,48.3h2.8V54c0.2-0.2,0.5-0.3,0.9-0.5c0.3-0.2,0.7-0.3,1.1-0.4s0.8-0.2,1.2-0.3s0.8-0.1,1.2-0.1
			c1,0,1.8,0.1,2.6,0.4c0.8,0.3,1.5,0.7,2.1,1.2c0.6,0.5,1,1.1,1.3,1.8c0.3,0.7,0.5,1.5,0.5,2.3c0,0.9-0.2,1.7-0.5,2.4
			c-0.3,0.7-0.8,1.3-1.4,1.9c-0.6,0.5-1.3,0.9-2.1,1.2c-0.8,0.3-1.7,0.4-2.7,0.4c-0.4,0-0.8,0-1.2-0.1c-0.4-0.1-0.8-0.1-1.1-0.2
			c-0.4-0.1-0.7-0.2-1-0.3c-0.3-0.1-0.6-0.3-0.9-0.4v0.8h-2.8V48.3z M162.1,60.6c0.3,0.2,0.6,0.4,0.9,0.6c0.3,0.2,0.6,0.3,1,0.4
			c0.3,0.1,0.7,0.2,1,0.2s0.7,0.1,1,0.1c0.6,0,1.2-0.1,1.7-0.3s0.9-0.4,1.3-0.7c0.3-0.3,0.6-0.7,0.8-1.1s0.3-0.9,0.3-1.3
			c0-0.5-0.1-0.9-0.3-1.3s-0.4-0.8-0.8-1.1c-0.3-0.3-0.8-0.5-1.2-0.7s-1-0.3-1.6-0.3c-0.4,0-0.8,0-1.1,0.1s-0.7,0.2-1.1,0.3
			c-0.4,0.1-0.7,0.3-1,0.5c-0.3,0.2-0.6,0.4-0.8,0.6V60.6z"/>
		<path class="st1" d="M176.4,52.9h2.8v1.6c0.6-0.5,1.3-0.9,2-1.2s1.4-0.6,2.1-0.8l0.8,2.6c-1.1,0.1-2,0.4-2.9,0.7
			c-0.8,0.4-1.5,0.9-2,1.6v6.7h-2.8V52.9z"/>
		<path class="st1" d="M186.4,60.6c0-0.5,0.1-1,0.4-1.5c0.2-0.4,0.6-0.8,1.1-1.1s1.1-0.6,1.8-0.7c0.7-0.2,1.5-0.3,2.5-0.3
			c0.7,0,1.4,0.1,2.2,0.2s1.6,0.3,2.4,0.5c0-0.4-0.1-0.7-0.3-1c-0.2-0.3-0.4-0.6-0.8-0.8c-0.3-0.2-0.7-0.4-1.2-0.5s-1-0.2-1.6-0.2
			c-0.3,0-0.7,0-1,0.1s-0.8,0.1-1.2,0.2c-0.4,0.1-0.8,0.2-1.2,0.3c-0.4,0.1-0.8,0.3-1.1,0.4l-0.9-2.3c0.4-0.2,0.9-0.3,1.4-0.4
			c0.5-0.1,1-0.2,1.5-0.3c0.5-0.1,1-0.2,1.5-0.2c0.5-0.1,1-0.1,1.5-0.1c2.1,0,3.7,0.5,4.7,1.6s1.5,2.7,1.5,4.9v4.9h-2.8v-1.1
			c-0.3,0.2-0.6,0.3-1,0.5c-0.3,0.2-0.7,0.3-1.1,0.4s-0.8,0.2-1.3,0.3c-0.5,0.1-1,0.1-1.5,0.1c-0.9,0-1.6-0.1-2.3-0.3
			c-0.7-0.2-1.2-0.5-1.7-0.8c-0.4-0.3-0.8-0.7-1-1.2C186.5,61.6,186.4,61.1,186.4,60.6z M189.4,60.5c0,0.2,0,0.4,0.1,0.5
			c0.1,0.2,0.2,0.3,0.5,0.4c0.2,0.1,0.5,0.2,0.8,0.3c0.3,0.1,0.7,0.1,1.2,0.1c0.5,0,1,0,1.4-0.1c0.5-0.1,0.9-0.2,1.3-0.4
			c0.4-0.1,0.8-0.3,1.1-0.5s0.6-0.4,0.8-0.6v-0.5c-0.4-0.1-0.9-0.2-1.3-0.3c-0.4-0.1-0.8-0.1-1.2-0.2c-0.4,0-0.7-0.1-1.1-0.1
			c-0.3,0-0.6,0-0.9,0c-0.5,0-1,0-1.3,0.1c-0.3,0.1-0.6,0.2-0.8,0.3c-0.2,0.1-0.4,0.3-0.5,0.4C189.4,60.2,189.4,60.3,189.4,60.5z"/>
		<path class="st1" d="M204,52.9h2.8v1c0.8-0.4,1.5-0.7,2.2-0.9s1.4-0.3,2-0.3c0.9,0,1.7,0.1,2.4,0.4c0.7,0.3,1.4,0.6,1.9,1.1
			c0.5,0.5,1,1.1,1.3,1.9c0.3,0.7,0.5,1.6,0.5,2.6v5.5h-2.8v-5.1c0-0.6-0.1-1.2-0.3-1.7s-0.4-0.9-0.8-1.2s-0.7-0.6-1.2-0.8
			c-0.5-0.2-1-0.3-1.6-0.3c-0.3,0-0.6,0-0.9,0.1c-0.3,0.1-0.6,0.2-0.9,0.3c-0.3,0.1-0.6,0.3-0.9,0.4c-0.3,0.2-0.5,0.4-0.8,0.6v7.6
			H204V52.9z"/>
		<path class="st1" d="M220.3,58.6c0-0.9,0.2-1.7,0.5-2.4s0.8-1.3,1.4-1.8c0.6-0.5,1.3-0.9,2.1-1.2c0.8-0.3,1.7-0.4,2.7-0.4
			c0.4,0,0.8,0,1.2,0.1c0.4,0.1,0.8,0.1,1.1,0.2c0.4,0.1,0.7,0.2,1,0.3c0.3,0.1,0.6,0.3,0.9,0.4v-5.4h2.8v15.8h-2.8v-1.1
			c-0.2,0.2-0.5,0.3-0.9,0.5s-0.7,0.3-1.1,0.4s-0.8,0.2-1.2,0.3c-0.4,0.1-0.8,0.1-1.2,0.1c-1,0-1.8-0.1-2.6-0.4
			c-0.8-0.3-1.5-0.7-2.1-1.2s-1-1.1-1.3-1.8S220.3,59.4,220.3,58.6z M223.3,58.6c0,0.5,0.1,0.9,0.3,1.3c0.2,0.4,0.4,0.8,0.8,1.1
			c0.3,0.3,0.8,0.5,1.2,0.7c0.5,0.2,1,0.3,1.6,0.3c0.4,0,0.8,0,1.1-0.1c0.4-0.1,0.7-0.2,1.1-0.3c0.4-0.1,0.7-0.3,1-0.5
			c0.3-0.2,0.6-0.4,0.8-0.6v-3.9c-0.3-0.2-0.6-0.4-0.9-0.6c-0.3-0.2-0.6-0.3-1-0.4c-0.3-0.1-0.7-0.2-1-0.2c-0.3,0-0.7-0.1-1-0.1
			c-0.6,0-1.2,0.1-1.7,0.3c-0.5,0.2-0.9,0.4-1.3,0.7c-0.3,0.3-0.6,0.7-0.8,1.1C223.4,57.6,223.3,58.1,223.3,58.6z"/>
		<path class="st1" d="M238.7,60.7c0.8,0.5,1.6,0.8,2.5,1c0.9,0.2,1.9,0.3,2.8,0.3c0.6,0,1.2,0,1.6-0.1s0.8-0.2,1-0.3
			s0.4-0.3,0.6-0.5c0.1-0.2,0.2-0.4,0.2-0.5c0-0.3-0.1-0.5-0.3-0.7c-0.2-0.2-0.6-0.3-1.1-0.3c-0.2,0-0.5,0-0.8,0
			c-0.3,0-0.6,0.1-0.9,0.1s-0.6,0.1-1,0.1c-0.3,0-0.7,0-1,0c-0.8,0-1.4-0.1-2-0.2c-0.5-0.2-1-0.4-1.3-0.7c-0.3-0.3-0.6-0.6-0.7-1
			c-0.2-0.4-0.2-0.8-0.2-1.3c0-0.6,0.1-1.1,0.4-1.6c0.3-0.5,0.6-0.9,1.1-1.3s1.1-0.6,1.8-0.8c0.7-0.2,1.5-0.3,2.3-0.3
			c0.5,0,0.9,0,1.4,0.1c0.5,0.1,1,0.1,1.5,0.2c0.5,0.1,0.9,0.2,1.4,0.3c0.4,0.1,0.8,0.2,1.2,0.4l-0.9,2.2c-0.7-0.3-1.4-0.5-2.2-0.6
			c-0.7-0.2-1.5-0.2-2.2-0.2c-0.5,0-1,0-1.3,0.1c-0.4,0.1-0.7,0.2-0.9,0.3c-0.2,0.1-0.4,0.3-0.5,0.4c-0.1,0.2-0.2,0.3-0.2,0.5
			c0,0.1,0,0.3,0.1,0.4c0.1,0.1,0.1,0.2,0.3,0.3c0.1,0.1,0.3,0.1,0.5,0.2s0.4,0.1,0.7,0.1c0.3,0,0.5,0,0.8,0c0.3,0,0.6-0.1,0.9-0.1
			s0.7-0.1,1-0.1c0.3,0,0.7,0,1.1,0c0.7,0,1.3,0.1,1.8,0.2c0.5,0.2,0.9,0.4,1.3,0.7c0.3,0.3,0.6,0.6,0.7,1c0.2,0.4,0.2,0.8,0.2,1.3
			c0,0.6-0.1,1.1-0.4,1.6s-0.7,0.9-1.2,1.3c-0.5,0.4-1.2,0.7-2,0.9c-0.8,0.2-1.7,0.3-2.8,0.3c-0.6,0-1.3,0-1.9-0.1s-1.2-0.2-1.7-0.3
			s-1.1-0.3-1.5-0.5c-0.5-0.2-0.9-0.4-1.3-0.6L238.7,60.7z"/>
		<path class="st1" d="M255.4,55h-2.7v-2.1h2.7v-3.5h2.8v3.5h2.7V55h-2.7v9.1h-2.8V55z"/>
		<path class="st1" d="M264.2,52.9h2.8v1.6c0.6-0.5,1.3-0.9,2-1.2c0.7-0.3,1.4-0.6,2.1-0.8l0.8,2.6c-1.1,0.1-2,0.4-2.9,0.7
			c-0.8,0.4-1.5,0.9-2,1.6v6.7h-2.8V52.9z"/>
		<path class="st1" d="M274.3,60.6c0-0.5,0.1-1,0.4-1.5c0.2-0.4,0.6-0.8,1.1-1.1c0.5-0.3,1.1-0.6,1.8-0.7s1.5-0.3,2.5-0.3
			c0.7,0,1.4,0.1,2.2,0.2s1.6,0.3,2.4,0.5c0-0.4-0.1-0.7-0.3-1c-0.2-0.3-0.4-0.6-0.8-0.8c-0.3-0.2-0.7-0.4-1.2-0.5s-1-0.2-1.6-0.2
			c-0.3,0-0.7,0-1,0.1c-0.4,0-0.8,0.1-1.2,0.2c-0.4,0.1-0.8,0.2-1.2,0.3c-0.4,0.1-0.8,0.3-1.1,0.4l-0.9-2.3c0.4-0.2,0.9-0.3,1.4-0.4
			c0.5-0.1,1-0.2,1.5-0.3c0.5-0.1,1-0.2,1.5-0.2s1-0.1,1.5-0.1c2.1,0,3.7,0.5,4.7,1.6s1.5,2.7,1.5,4.9v4.9h-2.8v-1.1
			c-0.3,0.2-0.6,0.3-1,0.5c-0.3,0.2-0.7,0.3-1.1,0.4c-0.4,0.1-0.8,0.2-1.3,0.3c-0.5,0.1-1,0.1-1.5,0.1c-0.9,0-1.6-0.1-2.3-0.3
			s-1.2-0.5-1.7-0.8c-0.4-0.3-0.8-0.7-1-1.2C274.4,61.6,274.3,61.1,274.3,60.6z M277.2,60.5c0,0.2,0,0.4,0.1,0.5
			c0.1,0.2,0.2,0.3,0.5,0.4s0.5,0.2,0.8,0.3c0.3,0.1,0.7,0.1,1.2,0.1c0.5,0,1,0,1.4-0.1c0.5-0.1,0.9-0.2,1.3-0.4
			c0.4-0.1,0.8-0.3,1.1-0.5s0.6-0.4,0.8-0.6v-0.5c-0.4-0.1-0.9-0.2-1.3-0.3c-0.4-0.1-0.8-0.1-1.2-0.2c-0.4,0-0.7-0.1-1.1-0.1
			c-0.3,0-0.6,0-0.9,0c-0.5,0-1,0-1.3,0.1c-0.3,0.1-0.6,0.2-0.8,0.3c-0.2,0.1-0.4,0.3-0.5,0.4C277.3,60.2,277.2,60.3,277.2,60.5z"/>
		<path class="st1" d="M292.4,55h-1.8v-2.1h1.8c0-0.7,0.2-1.3,0.4-1.9s0.6-1,1-1.4s1-0.7,1.7-0.9c0.6-0.2,1.4-0.3,2.2-0.3
			c0.9,0,1.7,0.1,2.4,0.3c0.7,0.2,1.2,0.5,1.7,0.9s0.8,0.8,1,1.3c0.2,0.5,0.3,1,0.3,1.5c0,0.6-0.1,1.2-0.4,1.7s-0.7,1-1.2,1.5
			c0.8,0,1.5,0.1,2.2,0.3c0.7,0.2,1.3,0.4,1.8,0.8s0.9,0.8,1.2,1.3c0.3,0.5,0.5,1.2,0.5,1.9c0,0.7-0.1,1.2-0.4,1.8
			c-0.3,0.5-0.7,1-1.2,1.4c-0.5,0.4-1.2,0.7-1.9,0.9c-0.8,0.2-1.7,0.3-2.7,0.3c-0.3,0-0.7,0-1.1,0s-0.7-0.1-1.1-0.1s-0.7-0.1-1-0.2
			c-0.3-0.1-0.6-0.2-0.9-0.4l0.9-2.2c0.6,0.3,1.1,0.4,1.7,0.5C300,62,300.5,62,301,62c0.5,0,0.9,0,1.3-0.1c0.4-0.1,0.7-0.2,1-0.4
			c0.3-0.2,0.5-0.4,0.6-0.6c0.1-0.3,0.2-0.6,0.2-0.9c0-0.2,0-0.4-0.1-0.6c-0.1-0.2-0.2-0.4-0.3-0.6c-0.2-0.2-0.4-0.4-0.7-0.5
			s-0.7-0.3-1.1-0.4c-0.5-0.1-1-0.2-1.7-0.2c-0.7,0-1.4,0-2.3,0.1v-2c0.8-0.6,1.3-1.1,1.6-1.6s0.5-1,0.5-1.4c0-0.2,0-0.5-0.1-0.7
			c-0.1-0.2-0.2-0.4-0.4-0.6s-0.4-0.3-0.7-0.4s-0.6-0.1-1-0.1c-0.4,0-0.7,0.1-1.1,0.2c-0.3,0.1-0.6,0.3-0.8,0.5s-0.4,0.4-0.5,0.7
			c-0.1,0.3-0.2,0.6-0.2,1v10.8h-2.8V55z"/>
		<path class="st1" d="M309.9,58.5c0-0.8,0.2-1.5,0.5-2.2c0.3-0.7,0.8-1.3,1.3-1.8c0.6-0.5,1.3-1,2.1-1.3c0.8-0.3,1.8-0.5,2.9-0.5
			c1.1,0,2,0.2,2.9,0.5c0.9,0.3,1.6,0.8,2.2,1.3s1.1,1.2,1.4,2c0.3,0.8,0.5,1.6,0.5,2.4c0,0.1,0,0.2,0,0.3c0,0.1,0,0.2,0,0.3h-10.6
			c0.1,0.3,0.3,0.6,0.6,0.9s0.6,0.5,1,0.7c0.4,0.2,0.9,0.4,1.4,0.5c0.5,0.1,1.1,0.2,1.8,0.2s1.3-0.1,1.9-0.2
			c0.6-0.1,1.3-0.3,1.8-0.5l1,2.2c-0.4,0.2-0.7,0.3-1.1,0.5c-0.4,0.1-0.8,0.2-1.2,0.3c-0.4,0.1-0.8,0.2-1.3,0.2
			c-0.4,0-0.9,0.1-1.4,0.1c-1.3,0-2.4-0.2-3.3-0.5c-1-0.3-1.8-0.7-2.4-1.2c-0.6-0.5-1.1-1.1-1.4-1.9
			C310.1,60.1,309.9,59.3,309.9,58.5z M320.7,57.4c-0.1-0.3-0.3-0.6-0.5-0.9s-0.5-0.5-0.8-0.7c-0.3-0.2-0.7-0.4-1.1-0.5
			c-0.4-0.1-0.9-0.2-1.4-0.2c-0.5,0-1,0.1-1.5,0.2s-0.8,0.3-1.2,0.5c-0.3,0.2-0.6,0.4-0.8,0.7c-0.2,0.3-0.4,0.5-0.5,0.8H320.7z"/>
	</g>
</g>
</svg>
