<?xml version="1.0" encoding="UTF-8" standalone="no"?>
<!-- Created with Inkscape (http://www.inkscape.org/) -->

<svg
   width="48.770042mm"
   height="34.820999mm"
   viewBox="0 0 48.770042 34.820999"
   version="1.1"
   id="svg1"
   inkscape:export-filename="Mathe1.png"
   inkscape:export-xdpi="96"
   inkscape:export-ydpi="96"
   inkscape:version="1.3.2 (091e20e, 2023-11-25, custom)"
   sodipodi:docname="gesellschaft-sonstiges.svg"
   xmlns:inkscape="http://www.inkscape.org/namespaces/inkscape"
   xmlns:sodipodi="http://sodipodi.sourceforge.net/DTD/sodipodi-0.dtd"
   xmlns="http://www.w3.org/2000/svg"
   xmlns:svg="http://www.w3.org/2000/svg">
  <sodipodi:namedview
     id="namedview1"
     pagecolor="#ffffff"
     bordercolor="#111111"
     borderopacity="1"
     inkscape:showpageshadow="0"
     inkscape:pageopacity="0"
     inkscape:pagecheckerboard="1"
     inkscape:deskcolor="#d1d1d1"
     inkscape:document-units="mm"
     inkscape:zoom="1.0242632"
     inkscape:cx="310.46707"
     inkscape:cy="274.34354"
     inkscape:window-width="1510"
     inkscape:window-height="1000"
     inkscape:window-x="401"
     inkscape:window-y="0"
     inkscape:window-maximized="0"
     inkscape:current-layer="layer1" />
  <defs
     id="defs1" />
  <g
     inkscape:label="Ebene 1"
     inkscape:groupmode="layer"
     id="layer1"
     transform="translate(-105.59294,-40.24396)">
    <g
       id="g30"
       transform="translate(-17.307156,-10.074315)">
      <rect
         style="fill:#7b90b7;fill-opacity:1;stroke:#0f2d7f;stroke-width:0.605224;stroke-opacity:1"
         id="rect9-3-86"
         width="48.164822"
         height="34.215775"
         x="123.2027"
         y="50.620888" />
      <path
         d="m 139.99377,60.377008 a 1.6297,1.6637569 0 1 1 3.2594,0 1.6297,1.6637569 0 1 1 -3.2594,0 z m 2.17295,6.713934 v 2.256468 l 1.73151,1.767736 c 0.24104,0.246082 0.40078,0.561516 0.45498,0.904663 l 0.51608,3.150738 c 0.0986,0.603109 -0.30222,1.175027 -0.89296,1.275543 -0.59078,0.100523 -1.15096,-0.308497 -1.24943,-0.9116 l -0.48549,-2.977425 -2.6958,-2.752125 c -0.40735,-0.415937 -0.63829,-0.980919 -0.63829,-1.570168 v -3.05368 c 0,-1.123034 0.88952,-2.031163 1.98956,-2.031163 0.81826,0 1.5788,0.415937 2.03374,1.109168 l 1.6093,2.464437 0.34288,0.173299 V 64.25909 c 0,-0.61351 0.48553,-1.109167 1.08649,-1.109167 h 4.34585 c 0.60096,0 1.08645,0.495657 1.08645,1.109167 v 2.641208 l 0.34287,-0.173299 1.60936,-2.467902 c 0.45153,-0.693231 1.21547,-1.109168 2.03369,-1.109168 1.10004,0 1.9896,0.908129 1.9896,2.031163 v 3.05368 c 0,0.589249 -0.22749,1.154231 -0.63488,1.570168 l -2.6958,2.752125 -0.48553,2.977425 c -0.0985,0.603109 -0.65865,1.012116 -1.24943,0.9116 -0.59074,-0.100529 -0.99139,-0.672434 -0.89292,-1.275543 l 0.51604,-3.150738 c 0.0542,-0.343166 0.21394,-0.658567 0.45498,-0.904663 l 1.73156,-1.767736 v -2.256468 l -0.6451,0.987855 c -0.15605,0.242644 -0.37368,0.436733 -0.62811,0.564982 l -2.02356,1.032912 c -0.0813,0.04505 -0.1663,0.07626 -0.25787,0.09705 -0.0883,0.02093 -0.17986,0.03101 -0.26815,0.02769 h -4.30515 c -0.085,0.0033 -0.16959,-0.0072 -0.25459,-0.02431 -0.0986,-0.02093 -0.19012,-0.05545 -0.27512,-0.104007 l -2.02015,-1.032913 c -0.25459,-0.128235 -0.46853,-0.325809 -0.6281,-0.564982 l -0.6451,-0.987855 z m -4.81101,7.847369 1.6229,-4.142051 1.67045,1.705346 -1.27661,3.25819 c -0.22421,0.568441 -0.8556,0.845734 -1.41241,0.616969 -0.55682,-0.228764 -0.82841,-0.870007 -0.60433,-1.438454 z m 17.30531,-16.225057 a 1.6296975,1.6637542 0 1 1 0,3.327508 1.6296975,1.6637542 0 1 1 0,-3.327508 z m 2.64489,12.083006 1.6229,4.142051 c 0.2242,0.568447 -0.0476,1.213161 -0.60433,1.441926 -0.55682,0.228765 -1.18833,-0.04856 -1.41241,-0.616982 l -1.27662,-3.258177 1.67046,-1.705347 z"
         id="path6527-6"
         style="fill:#0d2f7d;fill-opacity:1;stroke-width:0.0343048" />
    </g>
  </g>
</svg>
