<?xml version="1.0" encoding="UTF-8" standalone="no"?>
<!-- Created with Inkscape (http://www.inkscape.org/) -->

<svg
   width="48.770054mm"
   height="34.820999mm"
   viewBox="0 0 48.770054 34.820999"
   version="1.1"
   id="svg1"
   inkscape:export-filename="Mathe1.png"
   inkscape:export-xdpi="96"
   inkscape:export-ydpi="96"
   inkscape:version="1.3.2 (091e20e, 2023-11-25, custom)"
   sodipodi:docname="sprachen.svg"
   xmlns:inkscape="http://www.inkscape.org/namespaces/inkscape"
   xmlns:sodipodi="http://sodipodi.sourceforge.net/DTD/sodipodi-0.dtd"
   xmlns="http://www.w3.org/2000/svg"
   xmlns:svg="http://www.w3.org/2000/svg">
  <sodipodi:namedview
     id="namedview1"
     pagecolor="#ffffff"
     bordercolor="#111111"
     borderopacity="1"
     inkscape:showpageshadow="0"
     inkscape:pageopacity="0"
     inkscape:pagecheckerboard="1"
     inkscape:deskcolor="#d1d1d1"
     inkscape:document-units="mm"
     inkscape:zoom="1.0242632"
     inkscape:cx="310.46707"
     inkscape:cy="430.55339"
     inkscape:window-width="1510"
     inkscape:window-height="1000"
     inkscape:window-x="401"
     inkscape:window-y="0"
     inkscape:window-maximized="0"
     inkscape:current-layer="layer1" />
  <defs
     id="defs1" />
  <g
     inkscape:label="Ebene 1"
     inkscape:groupmode="layer"
     id="layer1"
     transform="translate(-134.78214,-15.275545)">
    <g
       id="g11">
      <rect
         style="fill:#deaf69;fill-opacity:1;stroke:#6e370d;stroke-width:0.605224;stroke-opacity:1"
         id="rect9-7"
         width="48.164822"
         height="34.215775"
         x="135.08476"
         y="15.578156" />
      <path
         d="m 153.18379,23.184825 c -0.51564,0 -0.98332,0.3035 -1.17918,0.76656 l -2.66614,6.22595 -0.53163,1.24519 c -0.27179,0.63427 0.0358,1.36192 0.68752,1.62653 0.65154,0.26458 1.39902,-0.0348 1.67083,-0.66929 l 0.20788,-0.47862 h 3.62547 l 0.20387,0.47862 c 0.27179,0.63427 1.01929,0.93389 1.67083,0.66929 0.65155,-0.26458 0.95934,-0.99226 0.68753,-1.62653 l -0.53163,-1.24519 -2.66614,-6.22595 c -0.19585,-0.46304 -0.66354,-0.76656 -1.17918,-0.76656 z m 0.74748,6.22594 h -1.49496 l 0.74748,-1.74327 z m 5.0085,-4.98075 v 3.73557 3.73556 c 0,0.68874 0.5716,1.24519 1.27911,1.24519 h 3.19777 c 1.76676,0 3.19777,-1.39306 3.19777,-3.11297 0,-0.89888 -0.39173,-1.70436 -1.01529,-2.27247 0.23983,-0.4358 0.37573,-0.9339 0.37573,-1.4631 0,-1.71992 -1.43101,-3.11297 -3.19777,-3.11297 h -2.55822 c -0.70751,0 -1.2791,0.55644 -1.2791,1.24519 z m 3.83732,2.49037 h -1.27911 v -1.24519 h 1.27911 c 0.35176,0 0.63956,0.28016 0.63956,0.6226 0,0.34242 -0.2878,0.62259 -0.63956,0.62259 z m -1.27911,2.49038 h 1.27911 0.63956 c 0.35175,0 0.63955,0.28017 0.63955,0.6226 0,0.34242 -0.28779,0.62259 -0.63955,0.62259 h -1.91867 z m 9.85713,5.86017 c 0.49965,-0.4864 0.49965,-1.27632 0,-1.76272 -0.49965,-0.4864 -1.31108,-0.4864 -1.81074,0 l -6.76728,6.59173 -2.93395,-2.85616 c -0.49965,-0.4864 -1.31108,-0.4864 -1.81074,0 -0.49965,0.4864 -0.49965,1.27632 0,1.76272 l 3.83733,3.73557 c 0.49965,0.4864 1.31108,0.4864 1.81074,0 z"
         id="path17863-2"
         style="fill:#6e370d;fill-opacity:1;stroke:none;stroke-width:0.0394384" />
    </g>
  </g>
</svg>
