<?xml version="1.0" encoding="UTF-8" standalone="no"?>
<!-- Created with Inkscape (http://www.inkscape.org/) -->

<svg
   width="48.770042mm"
   height="34.821003mm"
   viewBox="0 0 48.770042 34.821003"
   version="1.1"
   id="svg1"
   inkscape:export-filename="Mathe1.png"
   inkscape:export-xdpi="96"
   inkscape:export-ydpi="96"
   inkscape:version="1.3.2 (091e20e, 2023-11-25, custom)"
   sodipodi:docname="sprachen.svg"
   xmlns:inkscape="http://www.inkscape.org/namespaces/inkscape"
   xmlns:sodipodi="http://sodipodi.sourceforge.net/DTD/sodipodi-0.dtd"
   xmlns="http://www.w3.org/2000/svg"
   xmlns:svg="http://www.w3.org/2000/svg">
  <sodipodi:namedview
     id="namedview1"
     pagecolor="#ffffff"
     bordercolor="#111111"
     borderopacity="1"
     inkscape:showpageshadow="0"
     inkscape:pageopacity="0"
     inkscape:pagecheckerboard="1"
     inkscape:deskcolor="#d1d1d1"
     inkscape:document-units="mm"
     inkscape:zoom="1.0242632"
     inkscape:cx="310.46707"
     inkscape:cy="430.55339"
     inkscape:window-width="1510"
     inkscape:window-height="1000"
     inkscape:window-x="401"
     inkscape:window-y="0"
     inkscape:window-maximized="0"
     inkscape:current-layer="layer1" />
  <defs
     id="defs1" />
  <g
     inkscape:label="Ebene 1"
     inkscape:groupmode="layer"
     id="layer1"
     transform="translate(-134.7826,-54.709647)">
    <g
       id="g14"
       inkscape:export-filename=".\englisch3.png"
       inkscape:export-xdpi="96"
       inkscape:export-ydpi="96">
      <rect
         style="fill:#e6940f;fill-opacity:1;stroke:#6e370d;stroke-width:0.605224;stroke-opacity:1"
         id="rect9-3-86"
         width="48.164822"
         height="34.215775"
         x="135.08522"
         y="55.012257" />
      <path
         d="m 150.6364,73.567887 c 0.37624,-0.60139 0.26106,-1.3408 -0.28794,-1.83374 -0.81775,-0.73613 -1.25543,-1.62014 -1.25543,-2.5403 0,-2.08679 2.44942,-4.20644 6.14274,-4.20644 3.69332,0 6.14274,2.11965 6.14274,4.20644 0,2.08679 -2.44942,4.20644 -6.14274,4.20644 -0.50293,0 -0.99051,-0.0427 -1.45122,-0.1183 -0.39928,-0.0657 -0.81391,-0.0197 -1.17864,0.13802 -0.1574,0.069 -0.31865,0.13473 -0.48374,0.19718 -0.61427,0.23661 -1.2631,0.44365 -1.91576,0.59152 0.10749,-0.15116 0.20732,-0.29904 0.30329,-0.44693 0.0422,-0.0624 0.0845,-0.12816 0.12286,-0.19389 z m -3.38619,-4.37404 c 0,1.37367 0.66035,2.63231 1.7622,3.62477 -0.0345,0.0558 -0.0729,0.11502 -0.1075,0.1676 -0.39544,0.60468 -0.85614,1.19949 -1.40515,1.71215 -0.25338,0.23004 -0.31865,0.56524 -0.1766,0.85115 0.14973,0.29248 0.4799,0.4798 0.84846,0.4798 1.65086,0 3.32092,-0.43708 4.71072,-0.97603 0.18428,-0.0723 0.36856,-0.14789 0.54516,-0.22346 0.57973,0.0986 1.18632,0.14788 1.80827,0.14788 4.41126,0 7.98556,-2.58959 7.98556,-5.78386 0,-3.19427 -3.5743,-5.78386 -7.98556,-5.78386 -4.41125,0 -7.98556,2.58959 -7.98556,5.78386 z m 16.58539,9.9903 c 0.62196,0 1.22471,-0.0526 1.80827,-0.14788 0.17661,0.0756 0.36089,0.15117 0.54517,0.22346 1.3898,0.53896 3.05985,0.97603 4.71071,0.97603 0.36856,0 0.69874,-0.18732 0.84463,-0.47651 0.14589,-0.28919 0.0768,-0.6244 -0.17661,-0.85115 -0.54516,-0.51266 -1.00587,-1.10748 -1.40514,-1.71215 -0.0345,-0.0559 -0.073,-0.11173 -0.1075,-0.1676 1.10569,-0.99575 1.76603,-2.25439 1.76603,-3.62806 0,-3.10225 -3.37466,-5.63598 -7.60931,-5.77729 0.1574,0.49952 0.23803,1.02533 0.23803,1.57085 v 0.0197 c 3.34779,0.22018 5.52846,2.21825 5.52846,4.18673 0,0.92015 -0.43767,1.80417 -1.25542,2.53701 -0.54901,0.49294 -0.66418,1.23564 -0.28794,1.83374 0.0422,0.0657 0.0845,0.13145 0.12285,0.1939 0.096,0.14788 0.19964,0.29576 0.3033,0.44693 -0.65266,-0.14789 -1.30149,-0.35163 -1.91576,-0.59153 -0.16509,-0.0624 -0.32634,-0.12817 -0.48375,-0.19718 -0.36472,-0.15774 -0.77935,-0.20375 -1.17863,-0.13803 -0.46455,0.0789 -0.94829,0.11831 -1.45122,0.11831 -2.3688,0 -4.22314,-0.87086 -5.25204,-2.04735 -0.61428,0.17746 -1.25927,0.30891 -1.91961,0.38778 1.30149,1.91919 4.02733,3.24027 7.17548,3.24027 z"
         id="path298-8"
         style="fill:#6e370d;fill-opacity:1;stroke-width:0.0355201" />
    </g>
  </g>
</svg>
