<?xml version="1.0" encoding="UTF-8" standalone="no"?>
<!-- Created with Inkscape (http://www.inkscape.org/) -->

<svg
   width="48.770042mm"
   height="34.820999mm"
   viewBox="0 0 48.770042 34.820999"
   version="1.1"
   id="svg1"
   inkscape:export-filename="Mathe1.png"
   inkscape:export-xdpi="96"
   inkscape:export-ydpi="96"
   inkscape:version="1.3.2 (091e20e, 2023-11-25, custom)"
   sodipodi:docname="sprachen.svg"
   xmlns:inkscape="http://www.inkscape.org/namespaces/inkscape"
   xmlns:sodipodi="http://sodipodi.sourceforge.net/DTD/sodipodi-0.dtd"
   xmlns="http://www.w3.org/2000/svg"
   xmlns:svg="http://www.w3.org/2000/svg">
  <sodipodi:namedview
     id="namedview1"
     pagecolor="#ffffff"
     bordercolor="#111111"
     borderopacity="1"
     inkscape:showpageshadow="0"
     inkscape:pageopacity="0"
     inkscape:pagecheckerboard="1"
     inkscape:deskcolor="#d1d1d1"
     inkscape:document-units="mm"
     inkscape:zoom="1.0242632"
     inkscape:cx="310.46707"
     inkscape:cy="430.55339"
     inkscape:window-width="1510"
     inkscape:window-height="1000"
     inkscape:window-x="401"
     inkscape:window-y="0"
     inkscape:window-maximized="0"
     inkscape:current-layer="layer1" />
  <defs
     id="defs1" />
  <g
     inkscape:label="Ebene 1"
     inkscape:groupmode="layer"
     id="layer1"
     transform="translate(-12.25004,-55.02302)">
    <g
       id="g12"
       inkscape:export-filename=".\englisch1.png"
       inkscape:export-xdpi="96"
       inkscape:export-ydpi="96">
      <rect
         style="fill:#e6940f;fill-opacity:1;stroke:#6e370d;stroke-width:0.605224;stroke-opacity:1"
         id="rect9-3"
         width="48.164822"
         height="34.215775"
         x="12.552652"
         y="55.32563" />
      <text
         xml:space="preserve"
         style="font-style:normal;font-variant:normal;font-weight:normal;font-stretch:normal;font-size:5.64444px;font-family:'Krona One';-inkscape-font-specification:'Krona One';fill:#6e370d;fill-opacity:1;stroke:none;stroke-width:0.465"
         x="21.324121"
         y="86.021629"
         id="text11-9"><tspan
           sodipodi:role="line"
           id="tspan11-4"
           style="font-size:5.64444px;fill:#6e370d;fill-opacity:1;stroke:none;stroke-width:0.465"
           x="21.324121"
           y="86.021629">Englisch</tspan></text>
      <path
         d="m 27.158348,71.359911 c 0.376243,-0.60139 0.261065,-1.3408 -0.287942,-1.83374 -0.817752,-0.73613 -1.255423,-1.62014 -1.255423,-2.5403 0,-2.08679 2.449418,-4.20644 6.142738,-4.20644 3.693319,0 6.142739,2.11965 6.142739,4.20644 0,2.08679 -2.44942,4.20644 -6.142739,4.20644 -0.502936,0 -0.990516,-0.0427 -1.451223,-0.1183 -0.399277,-0.0657 -0.813911,-0.0197 -1.178637,0.13802 -0.157407,0.069 -0.318655,0.13473 -0.48374,0.19718 -0.614275,0.23661 -1.263101,0.44365 -1.915767,0.59152 0.107499,-0.15116 0.20732,-0.29904 0.303297,-0.44693 0.04223,-0.0624 0.08446,-0.12816 0.122856,-0.19389 z m -3.386185,-4.37404 c 0,1.37367 0.660345,2.63231 1.762195,3.62477 -0.03455,0.0558 -0.07294,0.11502 -0.107496,0.1676 -0.395439,0.60468 -0.856143,1.19949 -1.405151,1.71215 -0.253386,0.23004 -0.318656,0.56524 -0.176604,0.85115 0.149728,0.29248 0.479901,0.4798 0.848466,0.4798 1.650858,0 3.320917,-0.43708 4.710713,-0.97603 0.184279,-0.0723 0.368562,-0.14789 0.545167,-0.22346 0.579722,0.0986 1.186314,0.14788 1.808268,0.14788 4.411253,0 7.98556,-2.58959 7.98556,-5.78386 0,-3.19427 -3.574307,-5.78386 -7.98556,-5.78386 -4.411252,0 -7.985558,2.58959 -7.985558,5.78386 z m 16.58539,9.9903 c 0.621952,0 1.22471,-0.0526 1.808268,-0.14788 0.176605,0.0756 0.360886,0.15117 0.54517,0.22346 1.389793,0.53896 3.059849,0.97603 4.71071,0.97603 0.368565,0 0.698738,-0.18732 0.844628,-0.47651 0.145891,-0.28919 0.07678,-0.6244 -0.176604,-0.85115 -0.545168,-0.51266 -1.005874,-1.10748 -1.405151,-1.71215 -0.03455,-0.0559 -0.07295,-0.11173 -0.107499,-0.1676 1.105694,-0.99575 1.766036,-2.25439 1.766036,-3.62806 0,-3.10225 -3.374665,-5.63598 -7.609315,-5.77729 0.157407,0.49952 0.238033,1.02533 0.238033,1.57085 v 0.0197 c 3.347791,0.22018 5.528462,2.21825 5.528462,4.18673 0,0.92015 -0.43767,1.80417 -1.255422,2.53701 -0.549006,0.49294 -0.664184,1.23564 -0.28794,1.83374 0.04223,0.0657 0.08446,0.13145 0.122854,0.1939 0.09598,0.14788 0.199638,0.29576 0.303297,0.44693 -0.652664,-0.14789 -1.301491,-0.35163 -1.915765,-0.59153 -0.165085,-0.0624 -0.326332,-0.12817 -0.483742,-0.19718 -0.364724,-0.15774 -0.779358,-0.20375 -1.178638,-0.13803 -0.464544,0.0789 -0.948284,0.11831 -1.45122,0.11831 -2.368795,0 -4.223134,-0.87086 -5.252041,-2.04735 -0.614275,0.17746 -1.259263,0.30891 -1.919605,0.38778 1.301492,1.91919 4.027331,3.24027 7.175484,3.24027 z"
         id="path298"
         style="fill:#6e370d;fill-opacity:1;stroke-width:0.0355201" />
    </g>
  </g>
</svg>
