<?xml version="1.0" encoding="UTF-8" standalone="no"?>
<!-- Created with Inkscape (http://www.inkscape.org/) -->

<svg
   width="48.770042mm"
   height="34.820999mm"
   viewBox="0 0 48.770042 34.820999"
   version="1.1"
   id="svg1"
   inkscape:export-filename="Mathe1.png"
   inkscape:export-xdpi="96"
   inkscape:export-ydpi="96"
   inkscape:version="1.3.2 (091e20e, 2023-11-25, custom)"
   sodipodi:docname="gesellschaft-sonstiges.svg"
   xmlns:inkscape="http://www.inkscape.org/namespaces/inkscape"
   xmlns:sodipodi="http://sodipodi.sourceforge.net/DTD/sodipodi-0.dtd"
   xmlns="http://www.w3.org/2000/svg"
   xmlns:svg="http://www.w3.org/2000/svg">
  <sodipodi:namedview
     id="namedview1"
     pagecolor="#ffffff"
     bordercolor="#111111"
     borderopacity="1"
     inkscape:showpageshadow="0"
     inkscape:pageopacity="0"
     inkscape:pagecheckerboard="1"
     inkscape:deskcolor="#d1d1d1"
     inkscape:document-units="mm"
     inkscape:zoom="1.0242632"
     inkscape:cx="310.46707"
     inkscape:cy="770.3098"
     inkscape:window-width="1346"
     inkscape:window-height="1000"
     inkscape:window-x="269"
     inkscape:window-y="7"
     inkscape:window-maximized="0"
     inkscape:current-layer="layer1" />
  <defs
     id="defs1" />
  <g
     inkscape:label="Ebene 1"
     inkscape:groupmode="layer"
     id="layer1"
     transform="translate(-105.59246,-3.3930198)">
    <g
       id="g3"
       inkscape:export-filename=".\gesell3.png"
       inkscape:export-xdpi="96"
       inkscape:export-ydpi="96">
      <rect
         style="fill:#516fbe;fill-opacity:1;stroke:#0f2d7f;stroke-width:0.605224;stroke-opacity:1"
         id="rect9-7"
         width="48.164822"
         height="34.215775"
         x="105.89508"
         y="3.6956317" />
      <path
         d="m 118.22812,12.737912 a 2.8733152,2.6487137 0 1 1 5.74662,0 2.8733152,2.6487137 0 1 1 -5.74662,0 z m -0.41019,7.458968 c -0.5132,0.529718 -0.82094,1.23449 -0.82094,2.000723 0,0.766239 0.3078,1.470983 0.82094,2.000725 z m 7.40903,-2.331816 c -1.5239,1.243953 -2.48335,3.064944 -2.48335,5.089316 0,1.622336 0.6156,3.112236 1.64188,4.280512 v 1.016917 c 0,0.837179 -0.73375,1.513549 -1.64188,1.513549 h -3.28381 c -0.90818,0 -1.64187,-0.67637 -1.64187,-1.513549 v -1.267601 c -1.93949,-0.851371 -3.28381,-2.672363 -3.28381,-4.786605 0,-2.927771 2.5706,-5.297428 5.74662,-5.297428 h 1.64194 c 1.23137,0 2.37047,0.354728 3.30428,0.960164 z m 12.2937,10.386745 v -1.016917 c 1.02615,-1.168276 1.64188,-2.658176 1.64188,-4.280512 0,-2.024372 -0.95951,-3.845363 -2.48336,-5.094041 0.93382,-0.605424 2.07285,-0.960164 3.30429,-0.960164 h 1.64194 c 3.17601,0 5.74662,2.369657 5.74662,5.297428 0,2.114242 -1.34432,3.935234 -3.28381,4.786605 v 1.267601 c 0,0.837179 -0.73375,1.513549 -1.64188,1.513549 h -3.28381 c -0.90818,0 -1.64187,-0.67637 -1.64187,-1.513549 z m 0.41019,-15.513897 a 2.8733152,2.6487137 0 1 1 5.74662,0 2.8733152,2.6487137 0 1 1 -5.74662,0 z m 6.15712,7.458968 v 4.006178 c 0.5132,-0.534466 0.82094,-1.234491 0.82094,-2.000724 0,-0.766233 -0.3078,-1.470982 -0.82094,-2.000723 z M 130.9528,10.089198 a 3.2837906,3.027103 0 1 1 0,6.054206 3.2837906,3.027103 0 1 1 0,-6.054206 z m -4.10469,12.865182 c 0,0.766234 0.3078,1.466252 0.82094,2.000725 v -4.001448 c -0.5132,0.534466 -0.82094,1.23449 -0.82094,2.000723 z m 7.38849,-2.000723 v 4.006179 c 0.5132,-0.534467 0.82094,-1.234492 0.82094,-2.000725 0,-0.766239 -0.3078,-1.470982 -0.82094,-2.000723 z m 3.28381,2.000723 c 0,2.114242 -1.34431,3.935234 -3.28381,4.786605 v 2.024373 c 0,0.837184 -0.73375,1.513548 -1.64187,1.513548 h -3.28381 c -0.90819,0 -1.64187,-0.676364 -1.64187,-1.513548 v -2.024373 c -1.93949,-0.851371 -3.28381,-2.672363 -3.28381,-4.786605 0,-2.927777 2.5706,-5.297428 5.74662,-5.297428 h 1.64193 c 3.17602,0 5.74662,2.369651 5.74662,5.297428 z"
         id="path11487-9"
         style="fill:#0d2f7d;fill-opacity:1;stroke-width:0.0492631" />
    </g>
  </g>
</svg>
