<?xml version="1.0" encoding="UTF-8" standalone="no"?>
<!-- Created with Inkscape (http://www.inkscape.org/) -->

<svg
   width="48.770054mm"
   height="34.821003mm"
   viewBox="0 0 48.770054 34.821003"
   version="1.1"
   id="svg1"
   inkscape:export-filename="Mathe1.png"
   inkscape:export-xdpi="96"
   inkscape:export-ydpi="96"
   inkscape:version="1.3.2 (091e20e, 2023-11-25, custom)"
   sodipodi:docname="mint-fächer.svg"
   xmlns:inkscape="http://www.inkscape.org/namespaces/inkscape"
   xmlns:sodipodi="http://sodipodi.sourceforge.net/DTD/sodipodi-0.dtd"
   xmlns="http://www.w3.org/2000/svg"
   xmlns:svg="http://www.w3.org/2000/svg">
  <sodipodi:namedview
     id="namedview1"
     pagecolor="#ffffff"
     bordercolor="#111111"
     borderopacity="1"
     inkscape:showpageshadow="0"
     inkscape:pageopacity="0"
     inkscape:pagecheckerboard="1"
     inkscape:deskcolor="#d1d1d1"
     inkscape:document-units="mm"
     inkscape:zoom="0.72426347"
     inkscape:cx="230.57907"
     inkscape:cy="547.45271"
     inkscape:window-width="1920"
     inkscape:window-height="1009"
     inkscape:window-x="-8"
     inkscape:window-y="-8"
     inkscape:window-maximized="1"
     inkscape:current-layer="layer1" />
  <defs
     id="defs1" />
  <g
     inkscape:label="Ebene 1"
     inkscape:groupmode="layer"
     id="layer1"
     transform="translate(-134.55876,-96.16866)">
    <g
       id="g9"
       inkscape:export-filename=".\inf3.png"
       inkscape:export-xdpi="96"
       inkscape:export-ydpi="96">
      <rect
         style="fill:#53793d;fill-opacity:1;stroke:#274224;stroke-width:0.605224;stroke-opacity:1"
         id="rect9-8"
         width="48.164822"
         height="34.215775"
         x="134.86137"
         y="96.471275" />
      <path
         d="m 149.50729,106.45648 c 0,-1.42819 1.06054,-2.58937 2.36496,-2.58937 h 14.18966 c 1.30438,0 2.36491,1.16118 2.36491,2.58937 v 10.35739 h -2.36491 v -10.35739 h -14.18966 v 10.35739 h -2.36496 z m -2.36495,12.42881 c 0,-0.42864 0.31776,-0.7768 0.70948,-0.7768 h 22.23048 c 0.3915,0 0.70948,0.34791 0.70948,0.7768 0,1.71543 -1.27117,3.10721 -2.83793,3.10721 h -17.97358 c -1.56677,0 -2.83793,-1.39178 -2.83793,-3.10721 z m 10.38356,-7.85701 -1.14549,1.25419 1.14549,1.25424 c 0.34726,0.38021 0.34726,0.99528 0,1.37153 -0.34725,0.37628 -0.90898,0.3802 -1.25266,0 l -1.77369,-1.94199 c -0.34726,-0.38021 -0.34726,-0.99528 0,-1.37157 l 1.77369,-1.94198 c 0.34725,-0.3802 0.90903,-0.3802 1.25266,0 0.34368,0.3802 0.34726,0.99527 0,1.37153 z m 4.13869,-1.37558 1.77369,1.94198 c 0.34725,0.38021 0.34725,0.99529 0,1.37157 l -1.77369,1.94199 c -0.34726,0.3802 -0.90903,0.3802 -1.25271,0 -0.34368,-0.38022 -0.34726,-0.99529 0,-1.37153 l 1.14554,-1.25424 -1.14554,-1.25419 c -0.34726,-0.3802 -0.34726,-0.99529 0,-1.37152 0.34725,-0.37629 0.90903,-0.38021 1.25271,0 z"
         id="path2058-3"
         style="fill:#274224;fill-opacity:1;stroke-width:0.0386656" />
    </g>
  </g>
</svg>
