<?xml version="1.0" encoding="UTF-8" standalone="no"?>
<!-- Created with Inkscape (http://www.inkscape.org/) -->

<svg
   width="48.770042mm"
   height="34.821003mm"
   viewBox="0 0 48.770042 34.821003"
   version="1.1"
   id="svg1"
   inkscape:export-filename="Mathe1.png"
   inkscape:export-xdpi="96"
   inkscape:export-ydpi="96"
   inkscape:version="1.3.2 (091e20e, 2023-11-25, custom)"
   sodipodi:docname="sprachen.svg"
   xmlns:inkscape="http://www.inkscape.org/namespaces/inkscape"
   xmlns:sodipodi="http://sodipodi.sourceforge.net/DTD/sodipodi-0.dtd"
   xmlns="http://www.w3.org/2000/svg"
   xmlns:svg="http://www.w3.org/2000/svg">
  <sodipodi:namedview
     id="namedview1"
     pagecolor="#ffffff"
     bordercolor="#111111"
     borderopacity="1"
     inkscape:showpageshadow="0"
     inkscape:pageopacity="0"
     inkscape:pagecheckerboard="1"
     inkscape:deskcolor="#d1d1d1"
     inkscape:document-units="mm"
     inkscape:zoom="1.0242632"
     inkscape:cx="310.46707"
     inkscape:cy="430.55339"
     inkscape:window-width="1510"
     inkscape:window-height="1000"
     inkscape:window-x="401"
     inkscape:window-y="0"
     inkscape:window-maximized="0"
     inkscape:current-layer="layer1" />
  <defs
     id="defs1" />
  <g
     inkscape:label="Ebene 1"
     inkscape:groupmode="layer"
     id="layer1"
     transform="translate(-133.53983,-186.09611)">
    <g
       id="g17">
      <rect
         style="fill:#a68abd;fill-opacity:1;stroke:#570073;stroke-width:0.605224;stroke-opacity:1"
         id="rect9-5-2-3"
         width="48.164822"
         height="34.215775"
         x="133.84244"
         y="186.39871" />
      <path
         d="m 171.82113,203.48443 c 0,0.0334 0,0.0666 0,0.10002 -0.0193,1.35209 -1.6176,2.27077 -3.37482,2.27077 h -4.7132 c -1.27579,0 -2.31086,0.79644 -2.31086,1.77808 0,0.12595 0.0193,0.24819 0.0481,0.36673 0.1011,0.37784 0.31293,0.74087 0.51994,1.1076 0.29368,0.5112 0.58253,1.01869 0.58253,1.55582 0,1.17799 -1.03989,2.24854 -2.57083,2.29671 -0.1685,0.004 -0.337,0.007 -0.51032,0.007 -6.8026,0 -12.31978,-4.24518 -12.31978,-9.48313 0,-5.23794 5.51718,-9.48312 12.3246,-9.48312 6.80741,0 12.3246,4.24518 12.3246,9.48312 z m -18.4869,1.18539 a 1.5405751,1.1853907 0 1 0 -3.08115,0 1.5405751,1.1853907 0 1 0 3.08115,0 z m 0,-3.55617 a 1.5405751,1.1853907 0 1 0 0,-2.37078 1.5405751,1.1853907 0 1 0 0,2.37078 z m 7.70288,-3.55617 a 1.5405756,1.1853911 0 1 0 -3.08115,0 1.5405756,1.1853911 0 1 0 3.08115,0 z m 4.62172,3.55617 a 1.5405751,1.1853907 0 1 0 0,-2.37078 1.5405751,1.1853907 0 1 0 0,2.37078 z"
         id="path1-8"
         style="fill:#570073;fill-opacity:1;stroke-width:0.0422302" />
    </g>
  </g>
</svg>
