<?xml version="1.0" encoding="UTF-8" standalone="no"?>
<!-- Created with Inkscape (http://www.inkscape.org/) -->

<svg
   width="210mm"
   height="297mm"
   viewBox="0 0 210 297"
   version="1.1"
   id="svg1"
   xmlns:inkscape="http://www.inkscape.org/namespaces/inkscape"
   xmlns:sodipodi="http://sodipodi.sourceforge.net/DTD/sodipodi-0.dtd"
   xmlns="http://www.w3.org/2000/svg"
   xmlns:svg="http://www.w3.org/2000/svg">
  <sodipodi:namedview
     id="namedview1"
     pagecolor="#ffffff"
     bordercolor="#111111"
     borderopacity="1"
     inkscape:showpageshadow="0"
     inkscape:pageopacity="0"
     inkscape:pagecheckerboard="1"
     inkscape:deskcolor="#d1d1d1"
     inkscape:document-units="mm" />
  <defs
     id="defs1" />
  <g
     inkscape:label="Ebene 1"
     inkscape:groupmode="layer"
     id="layer1">
    <g
       id="g1"
       transform="translate(0,2.5831576)">
      <rect
         style="fill:#0ab66f;fill-opacity:1;stroke:#274224;stroke-width:0.605224;stroke-opacity:1"
         id="rect9"
         width="48.164822"
         height="34.215775"
         x="12.715649"
         y="13.845157" />
      <text
         xml:space="preserve"
         style="font-style:normal;font-variant:normal;font-weight:normal;font-stretch:normal;font-size:5.64444px;font-family:'Krona One';-inkscape-font-specification:'Krona One';fill:#274224;fill-opacity:1;stroke:none;stroke-width:0.465"
         x="14.850401"
         y="45.806198"
         id="text11"><tspan
           sodipodi:role="line"
           id="tspan11"
           style="font-size:5.64444px;fill:#274224;fill-opacity:1;stroke:none;stroke-width:0.465"
           x="14.850401"
           y="45.806198">Mathematik</tspan></text>
      <path
         d="m 38.007017,22.671395 c 0,-0.48637 -0.457783,-0.87931 -1.024446,-0.87931 -0.566664,0 -1.024447,0.39294 -1.024447,0.87931 v 3.07764 h -3.585601 c -0.566662,0 -1.024484,0.39296 -1.024484,0.87931 0,0.48638 0.457822,0.87935 1.024484,0.87935 h 3.585601 v 3.07762 c 0,0.48639 0.457783,0.87932 1.024447,0.87932 0.566663,0 1.024446,-0.39293 1.024446,-0.87932 v -3.07762 h 3.58564 c 0.566622,0 1.024445,-0.39297 1.024445,-0.87935 0,-0.48635 -0.457823,-0.87931 -1.024445,-0.87931 h -3.58564 z m -7.171199,12.31055 c 0,0.48636 0.45782,0.87932 1.024445,0.87932 h 10.244615 c 0.566625,0 1.024447,-0.39296 1.024447,-0.87932 0,-0.48637 -0.457822,-0.87933 -1.024447,-0.87933 H 31.860263 c -0.566625,0 -1.024445,0.39296 -1.024445,0.87933 z"
         id="path4155"
         style="fill:#274224;fill-opacity:1;stroke:none;stroke-width:0.0293102;stroke-dasharray:none" />
    </g>
  </g>
</svg>
