<?xml version="1.0" encoding="UTF-8" standalone="no"?>
<!-- Created with Inkscape (http://www.inkscape.org/) -->

<svg
   width="48.770042mm"
   height="34.820999mm"
   viewBox="0 0 48.770042 34.820999"
   version="1.1"
   id="svg1"
   inkscape:export-filename="Mathe1.png"
   inkscape:export-xdpi="96"
   inkscape:export-ydpi="96"
   inkscape:version="1.3.2 (091e20e, 2023-11-25, custom)"
   sodipodi:docname="mint-fächer.svg"
   xmlns:inkscape="http://www.inkscape.org/namespaces/inkscape"
   xmlns:sodipodi="http://sodipodi.sourceforge.net/DTD/sodipodi-0.dtd"
   xmlns="http://www.w3.org/2000/svg"
   xmlns:svg="http://www.w3.org/2000/svg">
  <sodipodi:namedview
     id="namedview1"
     pagecolor="#ffffff"
     bordercolor="#111111"
     borderopacity="1"
     inkscape:showpageshadow="0"
     inkscape:pageopacity="0"
     inkscape:pagecheckerboard="1"
     inkscape:deskcolor="#d1d1d1"
     inkscape:document-units="mm"
     inkscape:zoom="0.72426347"
     inkscape:cx="230.57907"
     inkscape:cy="437.68603"
     inkscape:window-width="958"
     inkscape:window-height="1000"
     inkscape:window-x="953"
     inkscape:window-y="0"
     inkscape:window-maximized="0"
     inkscape:current-layer="layer1" />
  <defs
     id="defs1" />
  <g
     inkscape:label="Ebene 1"
     inkscape:groupmode="layer"
     id="layer1"
     transform="translate(-135.06266,-16.00612)">
    <g
       id="g3"
       transform="translate(-4.6496837,0.51663152)"
       inkscape:export-filename=".\mathe3.png"
       inkscape:export-xdpi="96"
       inkscape:export-ydpi="96">
      <rect
         style="fill:#0ab66f;fill-opacity:1;stroke:#274224;stroke-width:0.605224;stroke-opacity:1"
         id="rect9-7"
         width="48.164822"
         height="34.215775"
         x="140.01495"
         y="15.792101" />
      <path
         d="m 165.01914,26.637434 c 0,-0.48636 -0.45778,-0.87931 -1.02445,-0.87931 -0.56666,0 -1.02444,0.39295 -1.02444,0.87931 v 3.07764 h -3.5856 c -0.56667,0 -1.02449,0.39296 -1.02449,0.87932 0,0.48638 0.45782,0.87934 1.02449,0.87934 h 3.5856 v 3.07762 c 0,0.48639 0.45778,0.87932 1.02444,0.87932 0.56667,0 1.02445,-0.39293 1.02445,-0.87932 v -3.07762 h 3.58564 c 0.56662,0 1.02445,-0.39296 1.02445,-0.87934 0,-0.48636 -0.45783,-0.87932 -1.02445,-0.87932 h -3.58564 z m -7.1712,12.31055 c 0,0.48636 0.45782,0.87932 1.02445,0.87932 H 169.117 c 0.56663,0 1.02445,-0.39296 1.02445,-0.87932 0,-0.48637 -0.45782,-0.87933 -1.02445,-0.87933 h -10.24461 c -0.56663,0 -1.02445,0.39296 -1.02445,0.87933 z"
         id="path4155-3"
         style="fill:#274224;fill-opacity:1;stroke:none;stroke-width:0.0293102;stroke-dasharray:none" />
    </g>
  </g>
</svg>
