<?xml version="1.0" encoding="UTF-8" standalone="no"?>
<!-- Created with Inkscape (http://www.inkscape.org/) -->

<svg
   width="48.770054mm"
   height="34.820988mm"
   viewBox="0 0 48.770054 34.820988"
   version="1.1"
   id="svg1"
   inkscape:export-filename="Mathe1.png"
   inkscape:export-xdpi="96"
   inkscape:export-ydpi="96"
   inkscape:version="1.3.2 (091e20e, 2023-11-25, custom)"
   sodipodi:docname="sprachen.svg"
   xmlns:inkscape="http://www.inkscape.org/namespaces/inkscape"
   xmlns:sodipodi="http://sodipodi.sourceforge.net/DTD/sodipodi-0.dtd"
   xmlns="http://www.w3.org/2000/svg"
   xmlns:svg="http://www.w3.org/2000/svg">
  <sodipodi:namedview
     id="namedview1"
     pagecolor="#ffffff"
     bordercolor="#111111"
     borderopacity="1"
     inkscape:showpageshadow="0"
     inkscape:pageopacity="0"
     inkscape:pagecheckerboard="1"
     inkscape:deskcolor="#d1d1d1"
     inkscape:document-units="mm"
     inkscape:zoom="1.0242632"
     inkscape:cx="310.46707"
     inkscape:cy="430.55339"
     inkscape:window-width="1510"
     inkscape:window-height="1000"
     inkscape:window-x="401"
     inkscape:window-y="0"
     inkscape:window-maximized="0"
     inkscape:current-layer="layer1" />
  <defs
     id="defs1" />
  <g
     inkscape:label="Ebene 1"
     inkscape:groupmode="layer"
     id="layer1"
     transform="translate(-133.62447,-224.85824)">
    <g
       id="g20"
       inkscape:export-filename=".\musical3.png"
       inkscape:export-xdpi="96"
       inkscape:export-ydpi="96">
      <rect
         style="fill:#664e98;fill-opacity:1;stroke:#570073;stroke-width:0.605224;stroke-opacity:1"
         id="rect9-5-59-5"
         width="48.164822"
         height="34.215775"
         x="133.92708"
         y="225.16084" />
      <path
         d="m 149.44079,246.76171 c 1.58437,1.33298 4.10348,3.04628 6.31098,2.72135 0.23161,-0.0331 0.45972,-0.0923 0.68392,-0.16617 -0.3497,-0.45418 -0.65731,-0.90097 -0.91947,-1.30714 -0.83212,-1.29236 -1.09429,-2.77674 -0.98409,-4.19465 -0.78272,0.1514 -1.48944,0.48002 -2.07833,0.93789 -0.24677,0.19199 -0.61935,0.048 -0.56233,-0.25848 0.2431,-1.23698 1.25384,-2.24872 2.59126,-2.44811 0.0988,-0.0148 0.20128,-0.0259 0.30007,-0.0295 l 0.73709,-4.84823 c 0.0758,-0.50956 0.30375,-1.20744 0.9499,-1.69484 0.70672,-0.52803 1.93394,-1.1262 3.93631,-1.30345 -0.0322,-0.0258 -0.0607,-0.0517 -0.0915,-0.0775 -0.76751,-0.57603 -2.75085,-1.53607 -7.03291,-0.90466 -4.28206,0.63141 -5.89686,2.11948 -6.45919,2.8912 -0.21644,0.29542 -0.24677,0.66834 -0.19392,1.0302 l 0.91948,6.06672 c 0.20909,1.37729 0.81691,2.68073 1.89217,3.58908 z m 3.33216,-8.10866 c 0.16727,-0.11446 0.41036,-0.0739 0.4485,0.12183 0.004,0.0183 0.009,0.0406 0.009,0.0591 0.12132,0.80495 -0.44069,1.55083 -1.25765,1.67268 -0.81691,0.12187 -1.57679,-0.43569 -1.69838,-1.23698 -0.004,-0.0183 -0.004,-0.0406 -0.009,-0.0591 -0.023,-0.1994 0.1976,-0.31016 0.39152,-0.24741 0.34189,0.1108 0.7143,0.14403 1.09042,0.0886 0.37636,-0.0554 0.72574,-0.1957 1.01828,-0.39881 z m 3.77294,8.729 c 1.11703,1.73176 3.0206,4.09493 5.2281,4.41987 2.20754,0.32494 4.73042,-1.38467 6.31102,-2.72134 1.07526,-0.90466 1.68318,-2.2081 1.89213,-3.58908 l 0.91952,-6.06673 c 0.0533,-0.36187 0.023,-0.73479 -0.19392,-1.03019 -0.56233,-0.77173 -2.17713,-2.25979 -6.45918,-2.8912 -4.28206,-0.63142 -6.26163,0.32864 -7.0291,0.90465 -0.29639,0.22155 -0.43701,0.56864 -0.49013,0.9305 l -0.91953,6.06673 c -0.20908,1.37729 -0.0138,2.79889 0.74472,3.97679 z m 5.42951,-5.71225 c -0.29272,-0.20311 -0.63834,-0.34343 -1.01828,-0.3988 -0.38003,-0.0554 -0.7523,-0.0223 -1.09047,0.0886 -0.19392,0.0628 -0.41403,-0.048 -0.39152,-0.24741 0.004,-0.0183 0.004,-0.0406 0.009,-0.0591 0.12178,-0.80496 0.88148,-1.35883 1.69839,-1.23697 0.81691,0.12182 1.37924,0.86773 1.25765,1.67268 -0.004,0.0183 -0.009,0.0406 -0.009,0.0591 -0.0368,0.19569 -0.28124,0.23633 -0.44851,0.12183 z m 5.17493,0.57233 c -0.0368,0.19569 -0.28124,0.23633 -0.44851,0.12183 -0.29272,-0.20307 -0.63829,-0.34338 -1.01828,-0.3988 -0.38003,-0.0554 -0.7523,-0.0223 -1.09042,0.0886 -0.19392,0.0628 -0.41403,-0.048 -0.39152,-0.2474 0.004,-0.0183 0.004,-0.0406 0.009,-0.0591 0.12178,-0.80495 0.88152,-1.35882 1.69838,-1.23696 0.81691,0.12182 1.37925,0.86772 1.25765,1.67268 -0.004,0.0183 -0.009,0.0406 -0.009,0.0591 z m -0.40669,3.67031 c -0.74472,1.65054 -2.53808,2.67704 -4.43784,2.39641 -1.89975,-0.28063 -3.30936,-1.77976 -3.53357,-3.57061 -0.0368,-0.3065 0.33822,-0.44679 0.57754,-0.24742 0.90808,0.76804 2.03655,1.30344 3.3056,1.48807 1.26904,0.18461 2.51148,0.004 3.60571,-0.47263 0.28859,-0.12554 0.60792,0.11817 0.47874,0.40246 z"
         id="path14375-7"
         style="fill:#570073;fill-opacity:1;stroke-width:0.0374561" />
    </g>
  </g>
</svg>
