<?xml version="1.0" encoding="UTF-8" standalone="no"?>
<!-- Created with Inkscape (http://www.inkscape.org/) -->

<svg
   width="48.770046mm"
   height="34.821003mm"
   viewBox="0 0 48.770046 34.821003"
   version="1.1"
   id="svg1"
   inkscape:export-filename="Mathe1.png"
   inkscape:export-xdpi="96"
   inkscape:export-ydpi="96"
   inkscape:version="1.3.2 (091e20e, 2023-11-25, custom)"
   sodipodi:docname="sprachen.svg"
   xmlns:inkscape="http://www.inkscape.org/namespaces/inkscape"
   xmlns:sodipodi="http://sodipodi.sourceforge.net/DTD/sodipodi-0.dtd"
   xmlns="http://www.w3.org/2000/svg"
   xmlns:svg="http://www.w3.org/2000/svg">
  <sodipodi:namedview
     id="namedview1"
     pagecolor="#ffffff"
     bordercolor="#111111"
     borderopacity="1"
     inkscape:showpageshadow="0"
     inkscape:pageopacity="0"
     inkscape:pagecheckerboard="1"
     inkscape:deskcolor="#d1d1d1"
     inkscape:document-units="mm"
     inkscape:zoom="1.0242632"
     inkscape:cx="310.46707"
     inkscape:cy="430.55339"
     inkscape:window-width="1510"
     inkscape:window-height="1000"
     inkscape:window-x="401"
     inkscape:window-y="0"
     inkscape:window-maximized="0"
     inkscape:current-layer="layer1" />
  <defs
     id="defs1" />
  <g
     inkscape:label="Ebene 1"
     inkscape:groupmode="layer"
     id="layer1"
     transform="translate(-11.385583,-224.11999)">
    <g
       id="g18"
       inkscape:export-filename=".\musical1.png"
       inkscape:export-xdpi="96"
       inkscape:export-ydpi="96">
      <rect
         style="fill:#664e98;fill-opacity:1;stroke:#570073;stroke-width:0.605224;stroke-opacity:1"
         id="rect9-5-59"
         width="48.164822"
         height="34.215775"
         x="11.688195"
         y="224.42261" />
      <text
         xml:space="preserve"
         style="font-style:normal;font-variant:normal;font-weight:normal;font-stretch:normal;font-size:5.64444px;font-family:'Krona One';-inkscape-font-specification:'Krona One';fill:#570073;fill-opacity:1;stroke:none;stroke-width:0.465"
         x="22.756014"
         y="255.5379"
         id="text11-96"><tspan
           sodipodi:role="line"
           id="tspan11-9"
           style="font-size:5.64444px;fill:#570073;fill-opacity:1;stroke:none;stroke-width:0.465"
           x="22.756014"
           y="255.5379">Musical</tspan></text>
      <path
         d="m 27.56769,243.45151 c 1.584376,1.33298 4.103483,3.04628 6.310985,2.72135 0.231605,-0.0331 0.459716,-0.0923 0.683921,-0.16617 -0.349703,-0.45418 -0.657315,-0.90097 -0.919478,-1.30714 -0.832119,-1.29236 -1.094284,-2.77674 -0.984088,-4.19465 -0.782722,0.1514 -1.489434,0.48002 -2.078326,0.93789 -0.246768,0.19199 -0.619357,0.048 -0.562329,-0.25848 0.243092,-1.23698 1.253833,-2.24872 2.591255,-2.44811 0.0988,-0.0148 0.201277,-0.0259 0.300074,-0.0295 l 0.73709,-4.84823 c 0.07583,-0.50956 0.303751,-1.20744 0.949899,-1.69484 0.706715,-0.52803 1.933939,-1.1262 3.936306,-1.30345 -0.03217,-0.0258 -0.06065,-0.0517 -0.09145,-0.0775 -0.767511,-0.57603 -2.750852,-1.53607 -7.03291,-0.90466 -4.282059,0.63141 -5.896853,2.11948 -6.459183,2.8912 -0.216441,0.29542 -0.24677,0.66834 -0.193922,1.0302 l 0.919477,6.06672 c 0.209087,1.37729 0.816909,2.68073 1.892168,3.58908 z m 3.33216,-8.10866 c 0.167269,-0.11446 0.410363,-0.0739 0.448503,0.12183 0.0038,0.0183 0.0092,0.0406 0.0092,0.0591 0.121317,0.80495 -0.440691,1.55083 -1.257647,1.67268 -0.816911,0.12187 -1.576792,-0.43569 -1.698386,-1.23698 -0.0038,-0.0183 -0.0038,-0.0406 -0.0092,-0.0591 -0.02298,-0.1994 0.197601,-0.31016 0.391523,-0.24741 0.341891,0.1108 0.714296,0.14403 1.090423,0.0886 0.376358,-0.0554 0.725738,-0.1957 1.018278,-0.39881 z m 3.772942,8.729 c 1.117032,1.73176 3.020597,4.09493 5.228096,4.41987 2.207547,0.32494 4.730425,-1.38467 6.311032,-2.72134 1.075259,-0.90466 1.683174,-2.2081 1.892122,-3.58908 l 0.919523,-6.06673 c 0.05331,-0.36187 0.02298,-0.73479 -0.193922,-1.03019 -0.562329,-0.77173 -2.177126,-2.25979 -6.459184,-2.8912 -4.282056,-0.63142 -6.261628,0.32864 -7.029093,0.90465 -0.296398,0.22155 -0.437016,0.56864 -0.490138,0.9305 l -0.919524,6.06673 c -0.209085,1.37729 -0.01379,2.79889 0.744717,3.97679 z M 40.1023,238.3596 c -0.292722,-0.20311 -0.638336,-0.34343 -1.018275,-0.3988 -0.380034,-0.0554 -0.7523,-0.0223 -1.090472,0.0886 -0.193922,0.0628 -0.414036,-0.048 -0.391519,-0.24741 0.0038,-0.0183 0.0038,-0.0406 0.0092,-0.0591 0.121776,-0.80496 0.881475,-1.35883 1.698384,-1.23697 0.816911,0.12182 1.379241,0.86773 1.257649,1.67268 -0.0038,0.0183 -0.0092,0.0406 -0.0092,0.0591 -0.03676,0.19569 -0.281234,0.23633 -0.448503,0.12183 z m 5.174932,0.57233 c -0.03676,0.19569 -0.281234,0.23633 -0.448504,0.12183 -0.292722,-0.20307 -0.638291,-0.34338 -1.018279,-0.3988 -0.380031,-0.0554 -0.752301,-0.0223 -1.090423,0.0886 -0.193922,0.0628 -0.414039,-0.048 -0.391522,-0.2474 0.0038,-0.0183 0.0038,-0.0406 0.0092,-0.0591 0.121777,-0.80495 0.881522,-1.35882 1.698386,-1.23696 0.81691,0.12182 1.379241,0.86772 1.257649,1.67268 -0.0038,0.0183 -0.0092,0.0406 -0.0092,0.0591 z m -0.406687,3.67031 c -0.744718,1.65054 -2.538088,2.67704 -4.437839,2.39641 -1.899753,-0.28063 -3.309368,-1.77976 -3.533574,-3.57061 -0.03676,-0.3065 0.338216,-0.44679 0.577541,-0.24742 0.908082,0.76804 2.036553,1.30344 3.305598,1.48807 1.269044,0.18461 2.511481,0.004 3.605718,-0.47263 0.288585,-0.12554 0.607915,0.11817 0.478741,0.40246 z"
         id="path14375"
         style="fill:#570073;fill-opacity:1;stroke-width:0.0374561" />
    </g>
  </g>
</svg>
