<?xml version="1.0" encoding="UTF-8" standalone="no"?>
<!-- Created with Inkscape (http://www.inkscape.org/) -->

<svg
   width="48.770042mm"
   height="34.820999mm"
   viewBox="0 0 48.770042 34.820999"
   version="1.1"
   id="svg1"
   inkscape:export-filename="Mathe1.png"
   inkscape:export-xdpi="96"
   inkscape:export-ydpi="96"
   inkscape:version="1.3.2 (091e20e, 2023-11-25, custom)"
   sodipodi:docname="mint-fächer.svg"
   xmlns:inkscape="http://www.inkscape.org/namespaces/inkscape"
   xmlns:sodipodi="http://sodipodi.sourceforge.net/DTD/sodipodi-0.dtd"
   xmlns="http://www.w3.org/2000/svg"
   xmlns:svg="http://www.w3.org/2000/svg">
  <sodipodi:namedview
     id="namedview1"
     pagecolor="#ffffff"
     bordercolor="#111111"
     borderopacity="1"
     inkscape:showpageshadow="0"
     inkscape:pageopacity="0"
     inkscape:pagecheckerboard="1"
     inkscape:deskcolor="#d1d1d1"
     inkscape:document-units="mm"
     inkscape:zoom="0.72426347"
     inkscape:cx="230.57907"
     inkscape:cy="437.68603"
     inkscape:window-width="958"
     inkscape:window-height="1000"
     inkscape:window-x="953"
     inkscape:window-y="0"
     inkscape:window-maximized="0"
     inkscape:current-layer="layer1" />
  <defs
     id="defs1" />
  <g
     inkscape:label="Ebene 1"
     inkscape:groupmode="layer"
     id="layer1"
     transform="translate(-12.25004,-55.02302)">
    <g
       id="g4"
       transform="translate(0,4.1330522)">
      <rect
         style="fill:#6bb46a;fill-opacity:1;stroke:#274224;stroke-width:0.605224;stroke-opacity:1"
         id="rect9-3"
         width="48.164822"
         height="34.215775"
         x="12.552652"
         y="51.192577" />
      <text
         xml:space="preserve"
         style="font-style:normal;font-variant:normal;font-weight:normal;font-stretch:normal;font-size:5.64444px;font-family:'Krona One';-inkscape-font-specification:'Krona One';fill:#274224;fill-opacity:1;stroke:none;stroke-width:0.465"
         x="27.782017"
         y="83.180161"
         id="text11-9"><tspan
           sodipodi:role="line"
           id="tspan11-4"
           style="font-size:5.64444px;fill:#274224;fill-opacity:1;stroke:none;stroke-width:0.465"
           x="27.782017"
           y="83.180161">NaWi</tspan></text>
      <path
         d="m 38.340501,57.550913 -1.32986,0.919007 c -0.212235,0.145295 -0.334534,0.377787 -0.334534,0.62116 v 0.330553 c 0,0.246988 0.216519,0.44679 0.483957,0.44679 0.09422,0 0.188918,-0.02544 0.267438,-0.07624 l 1.644645,-1.01346 c 0.07852,-0.0472 0.173216,-0.07624 0.267437,-0.07624 h 0.03807 c 0.244121,0 0.444461,0.185265 0.444461,0.410469 0,0.108949 -0.04758,0.214299 -0.12991,0.290615 l -0.782992,0.722853 c -0.228417,0.210706 -0.507561,0.370531 -0.814448,0.464967 l -1.042673,0.319649 c -0.228416,0.06904 -0.377838,0.265181 -0.377838,0.486753 0,0.134391 -0.05901,0.265181 -0.16132,0.363234 l -0.704332,0.650218 c -0.251733,0.232491 -0.389735,0.544867 -0.389735,0.871796 v 0.156176 c 0,0.595727 0.535114,1.078847 1.17644,1.078847 0.433039,0 0.834148,-0.225203 1.026922,-0.581197 l 0.157512,-0.294215 c 0.09422,-0.174377 0.29123,-0.286975 0.503659,-0.286975 0.177021,0 0.342147,0.07624 0.448265,0.207058 l 0.641376,0.788249 c 0.0828,0.105349 0.216519,0.163472 0.357849,0.163472 0.330727,0 0.546915,-0.323296 0.397349,-0.595726 l -0.04283,-0.08356 c -0.137522,-0.254285 0,-0.563036 0.295038,-0.653849 l 0.834101,-0.257885 c 0.298846,-0.09081 0.49971,-0.348698 0.49971,-0.639321 0,-0.374123 0.326445,-0.675635 0.731835,-0.675635 h 1.152836 c 0.346432,0 0.629525,0.261534 0.629525,0.58119 0,0.319657 -0.283142,0.581198 -0.629525,0.581198 h -0.814445 c -0.283141,0 -0.558717,0.105357 -0.759344,0.290615 L 41.840029,63.2322 c -0.0828,0.07624 -0.129912,0.181625 -0.129912,0.290622 0,0.225204 0.200817,0.410469 0.44446,0.410469 h 0.444461 c 0.236031,0 0.464445,0.08716 0.629524,0.239733 l 0.255541,0.2361 c 0.07091,0.06536 0.1104,0.156184 0.1104,0.246996 0,0.09081 -0.03807,0.18161 -0.1104,0.246989 l -0.295036,0.27243 c -0.14181,0.138039 -0.220327,0.316008 -0.220327,0.501274 0,0.185273 0.07852,0.363242 0.224131,0.497657 l 0.720037,0.664738 c 0.401154,0.370531 0.948213,0.581198 1.518727,0.581198 h 0.291231 c 0.255541,-0.733758 0.393543,-1.514742 0.393543,-2.324783 0,-4.046583 -3.446705,-7.352136 -7.778668,-7.54465 z m 6.767498,11.184388 c -0.145614,-0.09445 -0.322637,-0.148928 -0.511506,-0.148928 -0.236034,0 -0.464447,-0.08716 -0.629527,-0.23974 L 43.443654,67.85624 c -0.303126,-0.279718 -0.708234,-0.435902 -1.137085,-0.435902 -0.381646,0 -0.75544,-0.127143 -1.046625,-0.355986 L 40.217322,66.236149 C 39.760964,65.876515 39.178599,65.676745 38.576578,65.676745 H 37.75428 c -0.495759,0 -0.983666,0.13439 -1.396814,0.388683 l -1.078077,0.664738 c -0.700335,0.432255 -1.121335,1.158756 -1.121335,1.936108 v 0.116253 c 0,0.617512 0.26363,1.209606 0.735787,1.645509 l 0.629525,0.581197 c 0.334535,0.308752 0.786894,0.483113 1.25905,0.483113 h 0.83805 c 0.52331,0 0.944313,0.388676 0.944313,0.871797 0,0.09081 0.01428,0.181625 0.04283,0.265181 2.805333,-0.210706 5.213319,-1.729056 6.499921,-3.894015 z M 27.862727,65.095563 a 10.072534,9.2991462 0 1 1 20.145066,0 10.072534,9.2991462 0 1 1 -20.145066,0 z m 7.369456,-5.641241 c -0.244119,-0.225195 -0.645276,-0.225195 -0.889205,0 l -1.259064,1.162396 c -0.243931,0.225203 -0.243931,0.595726 0,0.820938 0.243928,0.225195 0.64527,0.225195 0.889219,0 l 1.25905,-1.162388 c 0.24412,-0.225203 0.24412,-0.595734 0,-0.820946 z"
         id="path6982"
         style="fill:#274224;fill-opacity:1;stroke-width:0.0378052" />
    </g>
  </g>
</svg>
