<?xml version="1.0" encoding="UTF-8" standalone="no"?>
<!-- Created with Inkscape (http://www.inkscape.org/) -->

<svg
   width="48.770035mm"
   height="34.821003mm"
   viewBox="0 0 48.770035 34.821003"
   version="1.1"
   id="svg1"
   inkscape:export-filename="Mathe1.png"
   inkscape:export-xdpi="96"
   inkscape:export-ydpi="96"
   inkscape:version="1.3.2 (091e20e, 2023-11-25, custom)"
   sodipodi:docname="mint-fächer.svg"
   xmlns:inkscape="http://www.inkscape.org/namespaces/inkscape"
   xmlns:sodipodi="http://sodipodi.sourceforge.net/DTD/sodipodi-0.dtd"
   xmlns="http://www.w3.org/2000/svg"
   xmlns:svg="http://www.w3.org/2000/svg">
  <sodipodi:namedview
     id="namedview1"
     pagecolor="#ffffff"
     bordercolor="#111111"
     borderopacity="1"
     inkscape:showpageshadow="0"
     inkscape:pageopacity="0"
     inkscape:pagecheckerboard="1"
     inkscape:deskcolor="#d1d1d1"
     inkscape:document-units="mm"
     inkscape:zoom="0.72426347"
     inkscape:cx="230.57907"
     inkscape:cy="437.68603"
     inkscape:window-width="958"
     inkscape:window-height="1000"
     inkscape:window-x="953"
     inkscape:window-y="0"
     inkscape:window-maximized="0"
     inkscape:current-layer="layer1" />
  <defs
     id="defs1" />
  <g
     inkscape:label="Ebene 1"
     inkscape:groupmode="layer"
     id="layer1"
     transform="translate(-134.7192,-55.164908)">
    <g
       id="g6"
       transform="translate(-5.1663152,3.0997891)">
      <rect
         style="fill:#6bb46a;fill-opacity:1;stroke:#274224;stroke-width:0.605224;stroke-opacity:1"
         id="rect9-97"
         width="48.164822"
         height="34.215775"
         x="140.18813"
         y="52.367729" />
      <path
         d="m 164.28533,61.3839 -1.32986,0.919 c -0.21223,0.1453 -0.33453,0.37779 -0.33453,0.62116 v 0.33056 c 0,0.24698 0.21652,0.44679 0.48396,0.44679 0.0942,0 0.18892,-0.0255 0.26744,-0.0762 l 1.64464,-1.01346 c 0.0785,-0.0472 0.17322,-0.0762 0.26744,-0.0762 h 0.0381 c 0.24412,0 0.44446,0.18526 0.44446,0.41046 0,0.10895 -0.0476,0.2143 -0.12991,0.29062 l -0.78299,0.72285 c -0.22842,0.21071 -0.50756,0.37053 -0.81445,0.46497 l -1.04267,0.31965 c -0.22842,0.069 -0.37784,0.26518 -0.37784,0.48675 0,0.13439 -0.059,0.26518 -0.16132,0.36324 l -0.70433,0.65021 c -0.25174,0.23249 -0.38974,0.54487 -0.38974,0.8718 v 0.15618 c 0,0.59572 0.53511,1.07884 1.17644,1.07884 0.43304,0 0.83415,-0.2252 1.02692,-0.58119 l 0.15751,-0.29422 c 0.0942,-0.17438 0.29123,-0.28697 0.50366,-0.28697 0.17702,0 0.34215,0.0762 0.44827,0.20705 l 0.64137,0.78825 c 0.0828,0.10535 0.21652,0.16347 0.35785,0.16347 0.33073,0 0.54692,-0.32329 0.39735,-0.59572 l -0.0428,-0.0836 c -0.13752,-0.25429 0,-0.56304 0.29504,-0.65385 l 0.8341,-0.25789 c 0.29885,-0.0908 0.49971,-0.34869 0.49971,-0.63932 0,-0.37412 0.32645,-0.67563 0.73184,-0.67563 h 1.15283 c 0.34643,0 0.62953,0.26153 0.62953,0.58119 0,0.31966 -0.28314,0.5812 -0.62953,0.5812 h -0.81444 c -0.28314,0 -0.55872,0.10535 -0.75935,0.29061 l -0.18511,0.17072 c -0.0828,0.0762 -0.12991,0.18163 -0.12991,0.29062 0,0.22521 0.20082,0.41047 0.44446,0.41047 h 0.44446 c 0.23603,0 0.46445,0.0872 0.62953,0.23974 l 0.25554,0.2361 c 0.0709,0.0654 0.1104,0.15618 0.1104,0.24699 0,0.0908 -0.0381,0.18161 -0.1104,0.24699 l -0.29504,0.27243 c -0.14181,0.13804 -0.22033,0.31601 -0.22033,0.50127 0,0.18528 0.0785,0.36325 0.22413,0.49766 l 0.72004,0.66474 c 0.40116,0.37053 0.94821,0.5812 1.51873,0.5812 h 0.29123 c 0.25554,-0.73376 0.39354,-1.51474 0.39354,-2.32479 0,-4.04658 -3.4467,-7.35213 -7.77867,-7.54465 z m 6.7675,11.18438 c -0.14561,-0.0944 -0.32263,-0.14892 -0.5115,-0.14892 -0.23604,0 -0.46445,-0.0872 -0.62953,-0.23974 l -0.52331,-0.4904 c -0.30313,-0.27972 -0.70824,-0.4359 -1.13709,-0.4359 -0.38164,0 -0.75544,-0.12714 -1.04662,-0.35599 l -1.04262,-0.8282 c -0.45636,-0.35963 -1.03873,-0.5594 -1.64075,-0.5594 h -0.8223 c -0.49576,0 -0.98366,0.13439 -1.39681,0.38868 l -1.07808,0.66474 c -0.70033,0.43225 -1.12133,1.15875 -1.12133,1.93611 v 0.11625 c 0,0.61751 0.26363,1.2096 0.73578,1.64551 l 0.62953,0.5812 c 0.33453,0.30875 0.78689,0.48311 1.25905,0.48311 h 0.83805 c 0.52331,0 0.94431,0.38867 0.94431,0.8718 0,0.0908 0.0143,0.18162 0.0428,0.26518 2.80534,-0.21071 5.21332,-1.72906 6.49992,-3.89402 z m -17.24527,-3.63974 a 10.072535,9.2991471 0 1 1 20.14507,0 10.072535,9.2991471 0 1 1 -20.14507,0 z m 7.36946,-5.64124 c -0.24412,-0.22519 -0.64528,-0.22519 -0.88921,0 l -1.25906,1.1624 c -0.24393,0.2252 -0.24393,0.59573 0,0.82094 0.24393,0.22519 0.64527,0.22519 0.88922,0 l 1.25905,-1.16239 c 0.24412,-0.2252 0.24412,-0.59573 0,-0.82095 z"
         id="path6982-0"
         style="fill:#274224;fill-opacity:1;stroke-width:0.0378052" />
    </g>
  </g>
</svg>
