<?xml version="1.0" encoding="UTF-8" standalone="no"?>
<!-- Created with Inkscape (http://www.inkscape.org/) -->

<svg
   width="48.770035mm"
   height="34.820995mm"
   viewBox="0 0 48.770035 34.820995"
   version="1.1"
   id="svg1"
   inkscape:export-filename="Mathe1.png"
   inkscape:export-xdpi="96"
   inkscape:export-ydpi="96"
   inkscape:version="1.3.2 (091e20e, 2023-11-25, custom)"
   sodipodi:docname="gesellschaft-sonstiges.svg"
   xmlns:inkscape="http://www.inkscape.org/namespaces/inkscape"
   xmlns:sodipodi="http://sodipodi.sourceforge.net/DTD/sodipodi-0.dtd"
   xmlns:xlink="http://www.w3.org/1999/xlink"
   xmlns="http://www.w3.org/2000/svg"
   xmlns:svg="http://www.w3.org/2000/svg">
  <sodipodi:namedview
     id="namedview1"
     pagecolor="#ffffff"
     bordercolor="#111111"
     borderopacity="1"
     inkscape:showpageshadow="0"
     inkscape:pageopacity="0"
     inkscape:pagecheckerboard="1"
     inkscape:deskcolor="#d1d1d1"
     inkscape:document-units="mm"
     inkscape:zoom="1.0242632"
     inkscape:cx="310.46707"
     inkscape:cy="274.34354"
     inkscape:window-width="1510"
     inkscape:window-height="1000"
     inkscape:window-x="401"
     inkscape:window-y="0"
     inkscape:window-maximized="0"
     inkscape:current-layer="layer1" />
  <defs
     id="defs1">
    <linearGradient
       id="swatch33"
       inkscape:label="lila">
      <stop
         style="stop-color:#79164e;stop-opacity:1;"
         offset="0.06086956"
         id="stop33" />
      <stop
         style="stop-color:#ce6412;stop-opacity:1;"
         offset="0.20840579"
         id="stop35" />
      <stop
         style="stop-color:#e6940f;stop-opacity:1;"
         offset="0.34999999"
         id="stop36" />
      <stop
         style="stop-color:#139156;stop-opacity:1;"
         offset="0.62862325"
         id="stop37" />
      <stop
         style="stop-color:#0f2d7f;stop-opacity:1;"
         offset="0.78242755"
         id="stop38" />
      <stop
         style="stop-color:#570073;stop-opacity:1;"
         offset="0.96521741"
         id="stop34" />
    </linearGradient>
    <linearGradient
       inkscape:collect="always"
       xlink:href="#swatch33"
       id="linearGradient39"
       gradientUnits="userSpaceOnUse"
       x1="18.354265"
       y1="93.754112"
       x2="42.409435"
       y2="93.754112"
       gradientTransform="translate(98.966271,3.4494374)" />
  </defs>
  <g
     inkscape:label="Ebene 1"
     inkscape:groupmode="layer"
     id="layer1"
     transform="translate(-104.43789,-79.639585)">
    <g
       id="g41"
       inkscape:export-filename=".\projekt3.png"
       inkscape:export-xdpi="96"
       inkscape:export-ydpi="96">
      <rect
         style="fill:#d2a5a6;fill-opacity:1;stroke:#592241;stroke-width:0.605224;stroke-opacity:1"
         id="rect9-5-59-9-5-3"
         width="48.164822"
         height="34.215775"
         x="104.7405"
         y="79.942192" />
      <path
         d="m 129.34807,88.588856 a 4.8110438,4.30735 0 1 1 0,8.6147 4.8110438,4.30735 0 1 1 0,-8.6147 z m -10.52413,2.15367 c 0.83067,0 1.50346,0.60236 1.50346,1.34605 v 1.34605 2.69209 1.35277 c 0,0.57207 0.25184,1.12058 0.70283,1.5244 l 1.92068,1.719574 c 0.31184,0.27932 0.80057,0.32303 1.16519,0.10431 0.48486,-0.2894 0.55251,-0.905204 0.1391,-1.272004 l -0.57132,-0.5115 -1.20274,-1.07684 c -0.46982,-0.42063 -0.46982,-1.10375 0,-1.52439 0.46981,-0.42064 1.23283,-0.42064 1.70265,0 l 1.20274,1.07683 0.57133,0.51149 v 0 l 0.95095,0.85138 c 0.7893,0.70667 1.23279,1.665734 1.23279,2.665174 v 2.65508 c 0,0.89176 -0.80807,1.61525 -1.80412,1.61525 h -2.50327 c -0.63896,0 -1.25161,-0.22547 -1.70265,-0.62927 l -3.75484,-3.36175 c -0.67656,-0.60572 -1.05619,-1.42681 -1.05619,-2.284914 v -3.4156 -2.15367 -1.88446 c 0,-0.74369 0.67279,-1.34605 1.50346,-1.34605 z m 21.04831,0 c 0.83066,0 1.50345,0.60236 1.50345,1.34605 v 1.88447 2.15367 3.41559 c 0,0.858104 -0.37957,1.679194 -1.05618,2.284914 l -3.75489,3.36175 c -0.45095,0.40382 -1.06369,0.62928 -1.70265,0.62928 h -2.507 c -0.99604,0 -1.80412,-0.7235 -1.80412,-1.61526 v -2.65507 c 0,-0.99944 0.44368,-1.958514 1.2328,-2.665184 l 0.95095,-0.85137 v 0 l 0.57132,-0.5115 1.20274,-1.07683 c 0.46982,-0.42064 1.23284,-0.42064 1.70266,0 0.46986,0.42064 0.46986,1.10376 0,1.5244 l -1.20274,1.07684 -0.57133,0.51149 c -0.41322,0.37017 -0.34594,0.982614 0.13911,1.272014 0.36457,0.21871 0.85321,0.17501 1.16519,-0.10432 l 1.92068,-1.719564 c 0.45095,-0.40383 0.70283,-0.95233 0.70283,-1.5244 v -1.35278 -2.69209 -1.34604 c 0,-0.74369 0.67279,-1.34605 1.50346,-1.34605 z"
         id="path17856-6"
         style="fill:url(#linearGradient39);fill-opacity:1;stroke-width:0.0355643" />
    </g>
  </g>
</svg>
