<?xml version="1.0" encoding="UTF-8" standalone="no"?>
<!-- Created with Inkscape (http://www.inkscape.org/) -->

<svg
   width="48.770035mm"
   height="34.820995mm"
   viewBox="0 0 48.770035 34.820995"
   version="1.1"
   id="svg1"
   inkscape:export-filename="Mathe1.png"
   inkscape:export-xdpi="96"
   inkscape:export-ydpi="96"
   inkscape:version="1.3.2 (091e20e, 2023-11-25, custom)"
   sodipodi:docname="gesellschaft-sonstiges.svg"
   xmlns:inkscape="http://www.inkscape.org/namespaces/inkscape"
   xmlns:sodipodi="http://sodipodi.sourceforge.net/DTD/sodipodi-0.dtd"
   xmlns="http://www.w3.org/2000/svg"
   xmlns:svg="http://www.w3.org/2000/svg">
  <sodipodi:namedview
     id="namedview1"
     pagecolor="#ffffff"
     bordercolor="#111111"
     borderopacity="1"
     inkscape:showpageshadow="0"
     inkscape:pageopacity="0"
     inkscape:pagecheckerboard="1"
     inkscape:deskcolor="#d1d1d1"
     inkscape:document-units="mm"
     inkscape:zoom="1.0242632"
     inkscape:cx="310.46707"
     inkscape:cy="274.34354"
     inkscape:window-width="1510"
     inkscape:window-height="1000"
     inkscape:window-x="401"
     inkscape:window-y="0"
     inkscape:window-maximized="0"
     inkscape:current-layer="layer1" />
  <defs
     id="defs1" />
  <g
     inkscape:label="Ebene 1"
     inkscape:groupmode="layer"
     id="layer1"
     transform="translate(-156.77124,-75.549063)">
    <g
       id="g33"
       transform="translate(34.355996,-16.273893)">
      <rect
         style="fill:#4b95af;fill-opacity:1;stroke:#0f2d7f;stroke-width:0.605224;stroke-opacity:1"
         id="rect9-938-2"
         width="48.164822"
         height="34.215775"
         x="122.71786"
         y="92.125565" />
      <path
         d="m 144.36428,102.89764 c 0.52386,0.64232 1.15996,1.16751 1.85217,1.59446 0.96913,0.59697 2.00934,0.97859 2.90733,1.19396 v -1.19018 c -0.83065,-1.14484 -1.42186,-2.54284 -1.47426,-4.18642 -0.0135,-0.426958 -0.28058,-0.812346 -0.68846,-0.921925 -0.28419,-0.07562 -0.59121,-0.0077 -0.78575,0.219167 -0.49765,0.581868 -1.22354,1.685138 -1.81103,3.294728 z m 5.95688,1.79471 v 1.15617 0 0.0491 0 1.21285 c -2.27498,-0.19271 -6.92225,-1.65492 -8.20567,-5.93958 -0.12354,-0.40808 -0.47892,-0.71033 -0.90174,-0.71033 -0.29551,0 -0.57247,0.14737 -0.70343,0.41562 -0.41182,0.86525 -0.96537,2.61084 -0.96537,5.02521 0,4.4169 2.99711,6.81994 4.43018,7.66251 l -5.18602,1.42822 c -0.19097,0.0529 -0.34439,0.1965 -0.40774,0.38541 -0.0634,0.18891 -0.0317,0.40049 0.086,0.5592 0.69221,0.92947 2.77264,2.65997 5.86705,2.65997 0.13486,0 0.26926,-0.0452 0.37425,-0.13225 l 2.82877,-2.28591 h 2.78387 c 3.3077,0 5.98676,-2.70531 5.98676,-6.04537 v -6.04537 l 1.11878,-1.69648 c 0.0489,-0.0756 0.0788,-0.16625 0.0788,-0.25691 0,-0.25692 -0.20591,-0.46475 -0.46024,-0.46475 h -3.73054 c -1.65383,0 -2.99336,1.35266 -2.99336,3.0227 z m 2.99336,-0.60454 a 0.59868243,0.6045412 0 1 1 0,1.20908 0.59868243,0.6045412 0 1 1 0,-1.20908 z"
         id="path9633-4"
         style="fill:#0f2d7f;fill-opacity:1;stroke:#0f2d7f;stroke-width:0.0376;stroke-opacity:1" />
    </g>
  </g>
</svg>
