<?xml version="1.0" encoding="UTF-8" standalone="no"?>
<!-- Created with Inkscape (http://www.inkscape.org/) -->

<svg
   width="48.770042mm"
   height="34.821003mm"
   viewBox="0 0 48.770042 34.821003"
   version="1.1"
   id="svg1"
   inkscape:export-filename="Mathe1.png"
   inkscape:export-xdpi="96"
   inkscape:export-ydpi="96"
   inkscape:version="1.3.2 (091e20e, 2023-11-25, custom)"
   sodipodi:docname="gesellschaft-sonstiges.svg"
   xmlns:inkscape="http://www.inkscape.org/namespaces/inkscape"
   xmlns:sodipodi="http://sodipodi.sourceforge.net/DTD/sodipodi-0.dtd"
   xmlns="http://www.w3.org/2000/svg"
   xmlns:svg="http://www.w3.org/2000/svg">
  <sodipodi:namedview
     id="namedview1"
     pagecolor="#ffffff"
     bordercolor="#111111"
     borderopacity="1"
     inkscape:showpageshadow="0"
     inkscape:pageopacity="0"
     inkscape:pagecheckerboard="1"
     inkscape:deskcolor="#d1d1d1"
     inkscape:document-units="mm"
     inkscape:zoom="1.0242632"
     inkscape:cx="310.46707"
     inkscape:cy="274.34354"
     inkscape:window-width="1510"
     inkscape:window-height="1000"
     inkscape:window-x="401"
     inkscape:window-y="0"
     inkscape:window-maximized="0"
     inkscape:current-layer="layer1" />
  <defs
     id="defs1" />
  <g
     inkscape:label="Ebene 1"
     inkscape:groupmode="layer"
     id="layer1"
     transform="translate(-8.2284986,-247.14726)">
    <g
       id="g42">
      <rect
         style="fill:#8e607f;fill-opacity:1;stroke:#592241;stroke-width:0.605224;stroke-opacity:1"
         id="rect9-5-59-9"
         width="48.164822"
         height="34.215775"
         x="8.5311108"
         y="247.44986" />
      <text
         xml:space="preserve"
         style="font-style:normal;font-variant:normal;font-weight:normal;font-stretch:normal;font-size:5.64444px;font-family:'Krona One';-inkscape-font-specification:'Krona One';fill:#592241;fill-opacity:1;stroke:none;stroke-width:0.465"
         x="21.817289"
         y="277.78894"
         id="text11-10"><tspan
           sodipodi:role="line"
           id="tspan11-24"
           style="font-size:5.64444px;fill:#592241;fill-opacity:1;stroke:none;stroke-width:0.465"
           x="21.817289"
           y="277.78894">Sport</tspan></text>
      <path
         d="m 39.810551,252.30441 a 2.0593781,1.9971979 0 1 0 -4.118756,0 2.0593781,1.9971979 0 1 0 4.118756,0 z m -8.336192,5.30505 c 0.424748,-0.41192 1.003947,-0.64493 1.60889,-0.64493 0.08152,0 0.163035,0.004 0.240262,0.0125 l -1.338596,3.8987 c -0.399005,1.16504 0.07294,2.44657 1.149818,3.09982 l 3.698299,2.24269 -1.089753,3.69481 c -0.210228,0.70735 0.214518,1.44381 0.943882,1.64769 0.729363,0.20388 1.488759,-0.20804 1.698986,-0.91538 l 1.231336,-4.17747 c 0.253133,-0.85713 -0.11155,-1.77251 -0.888105,-2.24269 l -2.436932,-1.4771 1.325725,-3.42852 0.218808,0.51179 c 0.643556,1.48957 2.140896,2.45905 3.805559,2.45905 h 0.91385 c 0.759394,0 1.37292,-0.595 1.37292,-1.33147 0,-0.73647 -0.613526,-1.33147 -1.37292,-1.33147 h -0.91385 c -0.553457,0 -1.055431,-0.32454 -1.265658,-0.81968 l -0.270294,-0.62412 c -0.626395,-1.46046 -1.892053,-2.57556 -3.453749,-3.04157 l -2.08941,-0.62413 c -0.476232,-0.14147 -0.973914,-0.21635 -1.475887,-0.21635 -1.330016,0 -2.608547,0.51177 -3.548137,1.42715 l -0.995366,0.96116 c -0.536297,0.5201 -0.536297,1.36475 0,1.88485 0.536296,0.52011 1.407242,0.52011 1.943538,0 l 0.991074,-0.96115 z m -1.480176,7.34386 h -2.5399 c -0.759396,0 -1.372919,0.59501 -1.372919,1.33148 0,0.73646 0.613523,1.33146 1.372919,1.33146 h 2.986098 c 0.81517,0 1.553113,-0.46601 1.883471,-1.18584 l 0.493394,-1.07765 -0.407585,-0.24965 c -0.750816,-0.45354 -1.308563,-1.1151 -1.626051,-1.86822 z"
         id="path1"
         style="fill:#592241;fill-opacity:1;stroke-width:0.042251" />
    </g>
  </g>
</svg>
