<?xml version="1.0" encoding="UTF-8" standalone="no"?>
<!-- Created with Inkscape (http://www.inkscape.org/) -->

<svg
   width="210mm"
   height="297mm"
   viewBox="0 0 210 297"
   version="1.1"
   id="svg1"
   inkscape:export-filename="Mathe1.png"
   inkscape:export-xdpi="96"
   inkscape:export-ydpi="96"
   inkscape:version="1.3.2 (091e20e, 2023-11-25, custom)"
   sodipodi:docname="sprachen.svg"
   xmlns:inkscape="http://www.inkscape.org/namespaces/inkscape"
   xmlns:sodipodi="http://sodipodi.sourceforge.net/DTD/sodipodi-0.dtd"
   xmlns="http://www.w3.org/2000/svg"
   xmlns:svg="http://www.w3.org/2000/svg">
  <sodipodi:namedview
     id="namedview1"
     pagecolor="#ffffff"
     bordercolor="#111111"
     borderopacity="1"
     inkscape:showpageshadow="0"
     inkscape:pageopacity="0"
     inkscape:pagecheckerboard="1"
     inkscape:deskcolor="#d1d1d1"
     inkscape:document-units="mm"
     inkscape:zoom="1.0242632"
     inkscape:cx="310.46708"
     inkscape:cy="429.57709"
     inkscape:window-width="1510"
     inkscape:window-height="1000"
     inkscape:window-x="394"
     inkscape:window-y="0"
     inkscape:window-maximized="0"
     inkscape:current-layer="layer1" />
  <defs
     id="defs1" />
  <g
     inkscape:label="Ebene 1"
     inkscape:groupmode="layer"
     id="layer1">
    <rect
       style="fill:#e6940f;fill-opacity:1;stroke:#6e370d;stroke-width:0.605224;stroke-opacity:1"
       id="rect9-3"
       width="48.164822"
       height="34.215775"
       x="12.552652"
       y="55.32563" />
    <rect
       style="fill:#e6940f;fill-opacity:1;stroke:#6e370d;stroke-width:0.605224;stroke-opacity:1"
       id="rect9-3-8"
       width="48.164822"
       height="34.215775"
       x="73.347763"
       y="55.270573" />
    <rect
       style="fill:#e6940f;fill-opacity:1;stroke:#6e370d;stroke-width:0.605224;stroke-opacity:1"
       id="rect9-3-86"
       width="48.164822"
       height="34.215775"
       x="135.08522"
       y="55.012257" />
    <text
       xml:space="preserve"
       style="font-style:normal;font-variant:normal;font-weight:normal;font-stretch:normal;font-size:5.64444px;font-family:'Krona One';-inkscape-font-specification:'Krona One';fill:#6e370d;fill-opacity:1;stroke:none;stroke-width:0.465"
       x="21.324121"
       y="86.021629"
       id="text11-9"><tspan
         sodipodi:role="line"
         id="tspan11-4"
         style="font-size:5.64444px;fill:#6e370d;fill-opacity:1;stroke:none;stroke-width:0.465"
         x="21.324121"
         y="86.021629">Englisch</tspan></text>
    <rect
       style="fill:#d37f4a;fill-opacity:1;stroke:#6e370d;stroke-width:0.605224;stroke-opacity:1"
       id="rect9-5"
       width="48.164822"
       height="34.215775"
       x="11.433913"
       y="142.79707" />
    <text
       xml:space="preserve"
       style="font-style:normal;font-variant:normal;font-weight:normal;font-stretch:normal;font-size:5.64444px;font-family:'Krona One';-inkscape-font-specification:'Krona One';fill:#6e370d;fill-opacity:1;stroke:none;stroke-width:0.465"
       x="13.464817"
       y="172.9942"
       id="text11-4"><tspan
         sodipodi:role="line"
         id="tspan11-60"
         style="font-size:5.64444px;fill:#6e370d;fill-opacity:1;stroke:none;stroke-width:0.465"
         x="13.464817"
         y="172.9942">Französisch</tspan></text>
    <rect
       style="fill:#c97515;fill-opacity:1;stroke:#6e370d;stroke-width:0.605224;stroke-opacity:1"
       id="rect9-938"
       width="48.164822"
       height="34.215775"
       x="11.552999"
       y="98.570465" />
    <rect
       style="fill:#c97515;fill-opacity:1;stroke:#6e370d;stroke-width:0.605224;stroke-opacity:1"
       id="rect9-938-5"
       width="48.164822"
       height="34.215775"
       x="73.637871"
       y="98.835503" />
    <rect
       style="fill:#c97515;fill-opacity:1;stroke:#6e370d;stroke-width:0.605224;stroke-opacity:1"
       id="rect9-938-2"
       width="48.164822"
       height="34.215775"
       x="134.8587"
       y="98.583458" />
    <text
       xml:space="preserve"
       style="font-style:normal;font-variant:normal;font-weight:normal;font-stretch:normal;font-size:5.64444px;font-family:'Krona One';-inkscape-font-specification:'Krona One';fill:#6e370d;fill-opacity:1;stroke:none;stroke-width:0.465"
       x="18.828104"
       y="129.39125"
       id="text11-0"><tspan
         sodipodi:role="line"
         style="font-size:5.64444px;fill:#6e370d;fill-opacity:1;stroke:none;stroke-width:0.465"
         x="18.828104"
         y="129.39125"
         id="tspan6">Spanisch</tspan></text>
    <rect
       style="fill:#d37f4a;fill-opacity:1;stroke:#6e370d;stroke-width:0.605224;stroke-opacity:1"
       id="rect9-5-0"
       width="48.164822"
       height="34.215775"
       x="74.140167"
       y="141.62144" />
    <rect
       style="fill:#d37f4a;fill-opacity:1;stroke:#6e370d;stroke-width:0.605224;stroke-opacity:1"
       id="rect9-5-8"
       width="48.164822"
       height="34.215775"
       x="134.57979"
       y="141.36313" />
    <text
       xml:space="preserve"
       style="font-style:normal;font-variant:normal;font-weight:normal;font-stretch:normal;font-size:5.64444px;font-family:'Krona One';-inkscape-font-specification:'Krona One';fill:#6e370d;fill-opacity:1;stroke:none;stroke-width:0.465"
       x="75.661133"
       y="161.78418"
       id="text11-4-7"><tspan
         sodipodi:role="line"
         id="tspan11-60-2"
         style="font-size:5.64444px;fill:#6e370d;fill-opacity:1;stroke:none;stroke-width:0.465"
         x="75.661133"
         y="161.78418">Französisch</tspan></text>
    <text
       xml:space="preserve"
       style="font-style:normal;font-variant:normal;font-weight:normal;font-stretch:normal;font-size:5.64444px;font-family:'Krona One';-inkscape-font-specification:'Krona One';fill:#6e370d;fill-opacity:1;stroke:none;stroke-width:0.465"
       x="80.393639"
       y="118.62064"
       id="text11-0-1"><tspan
         sodipodi:role="line"
         style="font-size:5.64444px;fill:#6e370d;fill-opacity:1;stroke:none;stroke-width:0.465"
         x="80.393639"
         y="118.62064"
         id="tspan6-5">Spanisch</tspan></text>
    <text
       xml:space="preserve"
       style="font-style:normal;font-variant:normal;font-weight:normal;font-stretch:normal;font-size:5.64444px;font-family:'Krona One';-inkscape-font-specification:'Krona One';fill:#6e370d;fill-opacity:1;stroke:none;stroke-width:0.465"
       x="81.811913"
       y="75.414383"
       id="text11-9-1"><tspan
         sodipodi:role="line"
         id="tspan11-4-1"
         style="font-size:5.64444px;fill:#6e370d;fill-opacity:1;stroke:none;stroke-width:0.465"
         x="81.811913"
         y="75.414383">Englisch</tspan></text>
    <g
       id="g10">
      <rect
         style="fill:#deaf69;fill-opacity:1;stroke:#6e370d;stroke-width:0.605224;stroke-opacity:1"
         id="rect9-6"
         width="48.164822"
         height="34.215775"
         x="73.479378"
         y="15.913029" />
      <text
         xml:space="preserve"
         style="font-style:normal;font-variant:normal;font-weight:normal;font-stretch:normal;font-size:5.64444px;font-family:'Krona One';-inkscape-font-specification:'Krona One';fill:#6e370d;fill-opacity:1;stroke:none;stroke-width:0.465"
         x="82.471352"
         y="35.612179"
         id="text11-8"><tspan
           sodipodi:role="line"
           id="tspan11-7"
           style="font-size:5.64444px;fill:#6e370d;fill-opacity:1;stroke:none;stroke-width:0.465"
           x="82.471352"
           y="35.612179">Deutsch</tspan></text>
    </g>
    <g
       id="g9">
      <rect
         style="fill:#deaf69;fill-opacity:1;stroke:#6e370d;stroke-width:0.605224;stroke-opacity:1"
         id="rect9"
         width="48.164822"
         height="34.215775"
         x="12.715649"
         y="16.428314" />
      <text
         xml:space="preserve"
         style="font-style:normal;font-variant:normal;font-weight:normal;font-stretch:normal;font-size:5.64444px;font-family:'Krona One';-inkscape-font-specification:'Krona One';fill:#6e370d;fill-opacity:1;stroke:none;stroke-width:0.465"
         x="21.308296"
         y="47.872723"
         id="text11"><tspan
           sodipodi:role="line"
           id="tspan11"
           style="font-size:5.64444px;fill:#6e370d;fill-opacity:1;stroke:none;stroke-width:0.465"
           x="21.308296"
           y="47.872723">Deutsch</tspan></text>
      <path
         d="m 30.277859,21.515405 c -0.515639,0 -0.983315,0.303501 -1.179176,0.766558 l -2.666143,6.225955 -0.531626,1.245188 c -0.271791,0.634267 0.03578,1.361922 0.687518,1.626528 0.651544,0.26458 1.399023,-0.03483 1.670834,-0.669287 l 0.207878,-0.478621 h 3.625469 l 0.203871,0.478621 c 0.271789,0.634268 1.019288,0.933884 1.67083,0.669287 0.651546,-0.264581 0.959335,-0.992261 0.687525,-1.626528 l -0.531631,-1.245188 -2.666141,-6.225955 c -0.195842,-0.46304 -0.663535,-0.766558 -1.179173,-0.766558 z m 0.747481,6.225938 h -1.49496 l 0.747479,-1.743265 z m 5.008504,-4.98075 v 3.735571 3.735562 c 0,0.688743 0.571595,1.245188 1.279104,1.245188 h 3.19777 c 1.766766,0 3.197774,-1.393058 3.197774,-3.112973 0,-0.898874 -0.391735,-1.704353 -1.015293,-2.272467 0.239835,-0.435799 0.375732,-0.933901 0.375732,-1.463104 0,-1.719915 -1.431008,-3.112965 -3.197774,-3.112965 h -2.558214 c -0.707508,0 -1.279104,0.556444 -1.279104,1.245188 z m 3.837322,2.490375 H 38.592053 V 24.00578 h 1.279113 c 0.351753,0 0.639552,0.28016 0.639552,0.62259 0,0.342429 -0.287795,0.622598 -0.639552,0.622598 z m -1.279113,2.490375 h 1.279113 0.639552 c 0.351753,0 0.639552,0.280169 0.639552,0.622598 0,0.342429 -0.287791,0.622598 -0.639552,0.622598 h -1.918665 z m 9.857128,5.860175 c 0.499653,-0.486406 0.499653,-1.276322 0,-1.76272 -0.499653,-0.486406 -1.311084,-0.486406 -1.810736,0 l -6.767279,6.591725 -2.93395,-2.856153 c -0.499656,-0.486407 -1.311087,-0.486407 -1.81074,0 -0.499656,0.486398 -0.499656,1.276313 0,1.762711 l 3.837323,3.735571 c 0.499652,0.486406 1.311087,0.486406 1.810739,0 z"
         id="path17863"
         style="fill:#6e370d;fill-opacity:1;stroke-width:0.0394384;stroke:none" />
    </g>
    <g
       id="g11">
      <rect
         style="fill:#deaf69;fill-opacity:1;stroke:#6e370d;stroke-width:0.605224;stroke-opacity:1"
         id="rect9-7"
         width="48.164822"
         height="34.215775"
         x="135.08476"
         y="15.578156" />
      <path
         d="m 153.18379,23.184825 c -0.51564,0 -0.98332,0.3035 -1.17918,0.76656 l -2.66614,6.22595 -0.53163,1.24519 c -0.27179,0.63427 0.0358,1.36192 0.68752,1.62653 0.65154,0.26458 1.39902,-0.0348 1.67083,-0.66929 l 0.20788,-0.47862 h 3.62547 l 0.20387,0.47862 c 0.27179,0.63427 1.01929,0.93389 1.67083,0.66929 0.65155,-0.26458 0.95934,-0.99226 0.68753,-1.62653 l -0.53163,-1.24519 -2.66614,-6.22595 c -0.19585,-0.46304 -0.66354,-0.76656 -1.17918,-0.76656 z m 0.74748,6.22594 h -1.49496 l 0.74748,-1.74327 z m 5.0085,-4.98075 v 3.73557 3.73556 c 0,0.68874 0.5716,1.24519 1.27911,1.24519 h 3.19777 c 1.76676,0 3.19777,-1.39306 3.19777,-3.11297 0,-0.89888 -0.39173,-1.70436 -1.01529,-2.27247 0.23983,-0.4358 0.37573,-0.9339 0.37573,-1.4631 0,-1.71992 -1.43101,-3.11297 -3.19777,-3.11297 h -2.55822 c -0.70751,0 -1.2791,0.55644 -1.2791,1.24519 z m 3.83732,2.49037 h -1.27911 v -1.24519 h 1.27911 c 0.35176,0 0.63956,0.28016 0.63956,0.6226 0,0.34242 -0.2878,0.62259 -0.63956,0.62259 z m -1.27911,2.49038 h 1.27911 0.63956 c 0.35175,0 0.63955,0.28017 0.63955,0.6226 0,0.34242 -0.28779,0.62259 -0.63955,0.62259 h -1.91867 z m 9.85713,5.86017 c 0.49965,-0.4864 0.49965,-1.27632 0,-1.76272 -0.49965,-0.4864 -1.31108,-0.4864 -1.81074,0 l -6.76728,6.59173 -2.93395,-2.85616 c -0.49965,-0.4864 -1.31108,-0.4864 -1.81074,0 -0.49965,0.4864 -0.49965,1.27632 0,1.76272 l 3.83733,3.73557 c 0.49965,0.4864 1.31108,0.4864 1.81074,0 z"
         id="path17863-2"
         style="fill:#6e370d;fill-opacity:1;stroke:none;stroke-width:0.0394384" />
    </g>
    <path
       d="m 27.158348,71.359911 c 0.376243,-0.60139 0.261065,-1.3408 -0.287942,-1.83374 -0.817752,-0.73613 -1.255423,-1.62014 -1.255423,-2.5403 0,-2.08679 2.449418,-4.20644 6.142738,-4.20644 3.693319,0 6.142739,2.11965 6.142739,4.20644 0,2.08679 -2.44942,4.20644 -6.142739,4.20644 -0.502936,0 -0.990516,-0.0427 -1.451223,-0.1183 -0.399277,-0.0657 -0.813911,-0.0197 -1.178637,0.13802 -0.157407,0.069 -0.318655,0.13473 -0.48374,0.19718 -0.614275,0.23661 -1.263101,0.44365 -1.915767,0.59152 0.107499,-0.15116 0.20732,-0.29904 0.303297,-0.44693 0.04223,-0.0624 0.08446,-0.12816 0.122856,-0.19389 z m -3.386185,-4.37404 c 0,1.37367 0.660345,2.63231 1.762195,3.62477 -0.03455,0.0558 -0.07294,0.11502 -0.107496,0.1676 -0.395439,0.60468 -0.856143,1.19949 -1.405151,1.71215 -0.253386,0.23004 -0.318656,0.56524 -0.176604,0.85115 0.149728,0.29248 0.479901,0.4798 0.848466,0.4798 1.650858,0 3.320917,-0.43708 4.710713,-0.97603 0.184279,-0.0723 0.368562,-0.14789 0.545167,-0.22346 0.579722,0.0986 1.186314,0.14788 1.808268,0.14788 4.411253,0 7.98556,-2.58959 7.98556,-5.78386 0,-3.19427 -3.574307,-5.78386 -7.98556,-5.78386 -4.411252,0 -7.985558,2.58959 -7.985558,5.78386 z m 16.58539,9.9903 c 0.621952,0 1.22471,-0.0526 1.808268,-0.14788 0.176605,0.0756 0.360886,0.15117 0.54517,0.22346 1.389793,0.53896 3.059849,0.97603 4.71071,0.97603 0.368565,0 0.698738,-0.18732 0.844628,-0.47651 0.145891,-0.28919 0.07678,-0.6244 -0.176604,-0.85115 -0.545168,-0.51266 -1.005874,-1.10748 -1.405151,-1.71215 -0.03455,-0.0559 -0.07295,-0.11173 -0.107499,-0.1676 1.105694,-0.99575 1.766036,-2.25439 1.766036,-3.62806 0,-3.10225 -3.374665,-5.63598 -7.609315,-5.77729 0.157407,0.49952 0.238033,1.02533 0.238033,1.57085 v 0.0197 c 3.347791,0.22018 5.528462,2.21825 5.528462,4.18673 0,0.92015 -0.43767,1.80417 -1.255422,2.53701 -0.549006,0.49294 -0.664184,1.23564 -0.28794,1.83374 0.04223,0.0657 0.08446,0.13145 0.122854,0.1939 0.09598,0.14788 0.199638,0.29576 0.303297,0.44693 -0.652664,-0.14789 -1.301491,-0.35163 -1.915765,-0.59153 -0.165085,-0.0624 -0.326332,-0.12817 -0.483742,-0.19718 -0.364724,-0.15774 -0.779358,-0.20375 -1.178638,-0.13803 -0.464544,0.0789 -0.948284,0.11831 -1.45122,0.11831 -2.368795,0 -4.223134,-0.87086 -5.252041,-2.04735 -0.614275,0.17746 -1.259263,0.30891 -1.919605,0.38778 1.301492,1.91919 4.027331,3.24027 7.175484,3.24027 z"
       id="path298"
       style="fill:#6e370d;fill-opacity:1;stroke-width:0.0355201" />
    <path
       d="m 150.6364,73.567887 c 0.37624,-0.60139 0.26106,-1.3408 -0.28794,-1.83374 -0.81775,-0.73613 -1.25543,-1.62014 -1.25543,-2.5403 0,-2.08679 2.44942,-4.20644 6.14274,-4.20644 3.69332,0 6.14274,2.11965 6.14274,4.20644 0,2.08679 -2.44942,4.20644 -6.14274,4.20644 -0.50293,0 -0.99051,-0.0427 -1.45122,-0.1183 -0.39928,-0.0657 -0.81391,-0.0197 -1.17864,0.13802 -0.1574,0.069 -0.31865,0.13473 -0.48374,0.19718 -0.61427,0.23661 -1.2631,0.44365 -1.91576,0.59152 0.10749,-0.15116 0.20732,-0.29904 0.30329,-0.44693 0.0422,-0.0624 0.0845,-0.12816 0.12286,-0.19389 z m -3.38619,-4.37404 c 0,1.37367 0.66035,2.63231 1.7622,3.62477 -0.0345,0.0558 -0.0729,0.11502 -0.1075,0.1676 -0.39544,0.60468 -0.85614,1.19949 -1.40515,1.71215 -0.25338,0.23004 -0.31865,0.56524 -0.1766,0.85115 0.14973,0.29248 0.4799,0.4798 0.84846,0.4798 1.65086,0 3.32092,-0.43708 4.71072,-0.97603 0.18428,-0.0723 0.36856,-0.14789 0.54516,-0.22346 0.57973,0.0986 1.18632,0.14788 1.80827,0.14788 4.41126,0 7.98556,-2.58959 7.98556,-5.78386 0,-3.19427 -3.5743,-5.78386 -7.98556,-5.78386 -4.41125,0 -7.98556,2.58959 -7.98556,5.78386 z m 16.58539,9.9903 c 0.62196,0 1.22471,-0.0526 1.80827,-0.14788 0.17661,0.0756 0.36089,0.15117 0.54517,0.22346 1.3898,0.53896 3.05985,0.97603 4.71071,0.97603 0.36856,0 0.69874,-0.18732 0.84463,-0.47651 0.14589,-0.28919 0.0768,-0.6244 -0.17661,-0.85115 -0.54516,-0.51266 -1.00587,-1.10748 -1.40514,-1.71215 -0.0345,-0.0559 -0.073,-0.11173 -0.1075,-0.1676 1.10569,-0.99575 1.76603,-2.25439 1.76603,-3.62806 0,-3.10225 -3.37466,-5.63598 -7.60931,-5.77729 0.1574,0.49952 0.23803,1.02533 0.23803,1.57085 v 0.0197 c 3.34779,0.22018 5.52846,2.21825 5.52846,4.18673 0,0.92015 -0.43767,1.80417 -1.25542,2.53701 -0.54901,0.49294 -0.66418,1.23564 -0.28794,1.83374 0.0422,0.0657 0.0845,0.13145 0.12285,0.1939 0.096,0.14788 0.19964,0.29576 0.3033,0.44693 -0.65266,-0.14789 -1.30149,-0.35163 -1.91576,-0.59153 -0.16509,-0.0624 -0.32634,-0.12817 -0.48375,-0.19718 -0.36472,-0.15774 -0.77935,-0.20375 -1.17863,-0.13803 -0.46455,0.0789 -0.94829,0.11831 -1.45122,0.11831 -2.3688,0 -4.22314,-0.87086 -5.25204,-2.04735 -0.61428,0.17746 -1.25927,0.30891 -1.91961,0.38778 1.30149,1.91919 4.02733,3.24027 7.17548,3.24027 z"
       id="path298-8"
       style="fill:#6e370d;fill-opacity:1;stroke-width:0.0355201" />
    <g
       id="g1">
      <path
         d="m 32.148371,159.48194 c 1.101981,0 1.99604,0.82876 1.99604,1.85027 v 0.61676 l 3.014851,-2.09698 c 0.345149,-0.23899 0.765149,-0.37005 1.197623,-0.37005 h 5.767723 c 0.365942,0 0.665348,-0.27754 0.665348,-0.61676 v -11.10164 c 0,-0.33922 -0.299406,-0.61676 -0.665348,-0.61676 H 28.156293 c -0.36594,0 -0.665346,0.27754 -0.665346,0.61676 v 11.10164 c 0,0.33922 0.299406,0.61676 0.665346,0.61676 z m 1.99604,4.77987 -0.0083,0.008 -0.21208,0.14647 -0.711089,0.49341 c -0.199604,0.13877 -0.469902,0.1619 -0.698613,0.0578 -0.228714,-0.10408 -0.365942,-0.31609 -0.365942,-0.55123 v -0.82105 -0.24671 -0.0116 -0.15418 -1.85028 h -1.996039 -1.996039 c -1.467921,0 -2.661386,-1.10631 -2.661386,-2.46703 v -11.10164 c 0,-1.36072 1.193465,-2.46703 2.661386,-2.46703 h 15.968313 c 1.46792,0 2.661385,1.10631 2.661385,2.46703 v 11.10164 c 0,1.36072 -1.193465,2.46703 -2.661385,2.46703 h -5.767723 z"
         id="path1"
         style="stroke-width:0.0400369;fill:#6e370d;fill-opacity:1" />
      <text
         xml:space="preserve"
         style="font-size:15.5963px;font-family:'Krona One';-inkscape-font-specification:'Krona One';text-align:center;text-anchor:middle;fill:#6e370d;stroke-width:0.0615784;fill-opacity:1"
         x="32.135036"
         y="170.99403"
         id="text1"
         transform="scale(1.0792917,0.92653356)"><tspan
           sodipodi:role="line"
           id="tspan1"
           style="font-style:normal;font-variant:normal;font-weight:normal;font-stretch:normal;font-size:15.5963px;font-family:'MV Boli';-inkscape-font-specification:'MV Boli';stroke-width:0.0615783;fill:#6e370d;fill-opacity:1"
           x="32.135036"
           y="170.99403">F</tspan></text>
    </g>
    <g
       id="g2"
       transform="translate(123.9629,3.3811758)">
      <path
         d="m 32.148371,159.48194 c 1.101981,0 1.99604,0.82876 1.99604,1.85027 v 0.61676 l 3.014851,-2.09698 c 0.345149,-0.23899 0.765149,-0.37005 1.197623,-0.37005 h 5.767723 c 0.365942,0 0.665348,-0.27754 0.665348,-0.61676 v -11.10164 c 0,-0.33922 -0.299406,-0.61676 -0.665348,-0.61676 H 28.156293 c -0.36594,0 -0.665346,0.27754 -0.665346,0.61676 v 11.10164 c 0,0.33922 0.299406,0.61676 0.665346,0.61676 z m 1.99604,4.77987 -0.0083,0.008 -0.21208,0.14647 -0.711089,0.49341 c -0.199604,0.13877 -0.469902,0.1619 -0.698613,0.0578 -0.228714,-0.10408 -0.365942,-0.31609 -0.365942,-0.55123 v -0.82105 -0.24671 -0.0116 -0.15418 -1.85028 h -1.996039 -1.996039 c -1.467921,0 -2.661386,-1.10631 -2.661386,-2.46703 v -11.10164 c 0,-1.36072 1.193465,-2.46703 2.661386,-2.46703 h 15.968313 c 1.46792,0 2.661385,1.10631 2.661385,2.46703 v 11.10164 c 0,1.36072 -1.193465,2.46703 -2.661385,2.46703 h -5.767723 z"
         id="path1-5"
         style="fill:#6e370d;fill-opacity:1;stroke-width:0.0400369" />
      <text
         xml:space="preserve"
         style="font-size:15.5963px;font-family:'Krona One';-inkscape-font-specification:'Krona One';text-align:center;text-anchor:middle;fill:#6e370d;fill-opacity:1;stroke-width:0.0615784"
         x="32.135036"
         y="170.99403"
         id="text1-7"
         transform="scale(1.0792917,0.92653356)"><tspan
           sodipodi:role="line"
           id="tspan1-4"
           style="font-style:normal;font-variant:normal;font-weight:normal;font-stretch:normal;font-size:15.5963px;font-family:'MV Boli';-inkscape-font-specification:'MV Boli';fill:#6e370d;fill-opacity:1;stroke-width:0.0615783"
           x="32.135036"
           y="170.99403">F</tspan></text>
    </g>
  </g>
</svg>
