<svg id="Capa_1" enable-background="new 0 0 512.001 512.001" height="512" viewBox="0 0 512.001 512.001" width="512" xmlns="http://www.w3.org/2000/svg"><g><path d="m406 48.024c-8.168-12.004-22.269-25.03-45-25.03-32.099 0-55 25.886-55 56.97 0 34.579 27.985 57.29 70.347 91.666 7.423 6.023 15.098 12.252 23.252 19.046 1.854 1.545 4.128 2.317 6.401 2.317s4.548-.772 6.401-2.317c8.154-6.794 15.829-13.023 23.252-19.046 42.362-34.376 70.347-57.086 70.347-91.665 0-31.101-22.918-56.97-55-56.97-22.731-.001-36.832 13.025-45 25.029zm45-5.03c19.953 0 35 15.894 35 36.97 0 25.052-25.043 45.375-62.949 76.136-5.509 4.47-11.156 9.053-17.051 13.909-5.895-4.855-11.542-9.438-17.051-13.909-37.906-30.761-62.949-51.083-62.949-76.135 0-21.077 15.047-36.97 35-36.97 26.107 0 35.034 29.068 35.391 30.268 1.233 4.283 5.152 7.232 9.609 7.232s8.376-2.95 9.609-7.232c.087-.304 9.023-30.269 35.391-30.269z"/><path d="m256 173.028c-6.155-7.775-15.726-15.034-30-15.034-22.43 0-40 18.835-40 42.88 0 25.478 20.097 42.604 47.911 66.309 4.951 4.219 10.07 8.582 15.503 13.336 1.885 1.65 4.235 2.475 6.586 2.475s4.701-.825 6.586-2.475c5.433-4.754 10.552-9.117 15.503-13.336 27.814-23.705 47.911-40.831 47.911-66.309 0-24.045-17.57-42.88-40-42.88-14.274 0-23.845 7.259-30 15.034zm50 27.846c0 16.244-15.389 29.359-40.884 51.086-2.966 2.527-5.991 5.105-9.116 7.795-3.125-2.69-6.15-5.268-9.116-7.795-25.495-21.727-40.884-34.842-40.884-51.086 0-11.092 7.01-22.88 20-22.88 14.779 0 20.149 18.173 20.356 18.895 1.191 4.344 5.133 7.38 9.637 7.38s8.445-2.985 9.637-7.329c.221-.773 5.591-18.946 20.37-18.946 12.99 0 20 11.789 20 22.88z"/><circle cx="433" cy="400.994" r="10"/><path d="m10 447.994h32.46c15.813 0 36.247 6.949 59.908 14.994 33.424 11.365 75.021 25.509 122.528 26.005 51.302.525 97.395-14.847 141.07-41.767 10.532-6.491 21.029-12.693 31.201-18.434 4.81-2.715 6.508-8.814 3.794-13.624-2.714-4.811-8.816-6.507-13.624-3.794-10.394 5.866-21.115 12.2-31.865 18.826-43.1 26.564-85.702 39.259-130.368 38.793-44.308-.462-82.554-13.467-116.298-24.941-25.342-8.617-47.228-16.059-66.347-16.059h-22.459v-70h10.94c40.906 0 69.233-15.826 91.995-28.542 15.807-8.831 29.459-16.458 43.064-16.458 14.771 0 23.123 5.41 33.698 12.26 12.466 8.074 26.594 17.225 52.437 18.665 66.04 3.674 80.335 16.178 80.335 19.076 0 2.582-5.937 5.297-6.807 5.95-13.149 6.622-46.456 14.05-129.663 14.05-5.522 0-10 4.477-10 10s4.478 10 10 10c114.663 0 129.946-13.417 145.063-18.801 16.625-5.921 37.314-13.291 52.163-22.263 23.45-14.186 47.804-12.156 64.106-7.955 11.441 2.949 20.874 7.451 27.308 11.466-5.296 2.048-9.709 3.75-15.23 5.98-5.121 2.069-7.595 7.897-5.525 13.018 2.069 5.121 7.896 7.595 13.018 5.526 5.142-2.078 9.506-3.765 13.356-5.254 14.04-5.428 19.293-7.459 21.254-13.831 1.003-3.258.45-6.758-1.521-9.61-11.708-16.907-73.598-48.826-127.112-16.456-8.474 5.12-19.669 9.852-30.787 14.075-3.8-20.012-36.238-31.458-98.844-34.94-20.54-1.145-31.292-8.109-42.676-15.482-11.745-7.607-23.89-15.474-44.571-15.474-18.813 0-35.331 9.228-52.819 18.999-21.815 12.188-46.542 26.001-82.24 26.001h-20.942c-5.522 0-10 4.477-10 10v90c0 5.524 4.478 10.001 10 10.001z"/></g></svg>