<?xml version="1.0" encoding="iso-8859-1"?>
<!-- Generator: Adobe Illustrator 19.0.0, SVG Export Plug-In . SVG Version: 6.00 Build 0)  -->
<svg version="1.1" id="Layer_1" xmlns="http://www.w3.org/2000/svg" xmlns:xlink="http://www.w3.org/1999/xlink" x="0px" y="0px"
	 viewBox="0 0 511.999 511.999" style="enable-background:new 0 0 511.999 511.999;" xml:space="preserve">
<g>
	<g>
		<path d="M299.311,204.278c8.356,5.535,17.457,8.726,27.05,9.487c1.488,0.117,2.967,0.176,4.446,0.176
			c18.201-0.001,35.666-8.891,49.589-25.368c14.203-16.807,23.109-39.761,25.079-64.635c0.754-9.529,0.463-19.011-0.868-28.185
			c-0.589-4.067-3.463-7.436-7.388-8.66c-8.843-2.759-18.162-4.54-27.699-5.296c-24.87-1.971-48.942,3.211-67.777,14.588
			c-19.964,12.061-31.822,29.6-33.39,49.389c-0.76,9.598,0.961,19.096,5.119,28.231c0.063,0.137,0.127,0.272,0.197,0.407
			c1.873,3.695,3.957,7.196,6.224,10.473c-6.647,7.648-12.985,15.593-18.983,23.852c-5.372-29.899-12.413-59.471-21.096-88.64
			c2.73-1.488,5.299-3.152,7.674-4.994c6.824-5.291,11.943-11.842,15.216-19.469c6.74-15.701,4.769-33.764-5.548-50.861
			c-9.635-15.966-25.617-29.341-45.005-37.66c-7.416-3.182-15.083-5.515-22.786-6.934c-4.042-0.747-8.156,0.896-10.575,4.222
			c-4.602,6.33-8.551,13.303-11.737,20.73c-8.318,19.385-10.686,40.091-6.668,58.302c4.302,19.499,15.319,33.947,31.019,40.684
			c6.041,2.592,12.454,3.896,19.129,3.896c1.761,0,3.543-0.092,5.338-0.273c0.148-0.016,0.297-0.033,0.445-0.056
			c1.113-0.16,2.207-0.361,3.298-0.566c13.432,45.334,22.789,91.665,27.995,138.692c-10.149-8.152-20.643-15.749-31.468-22.776
			c1.665-4.566,3.007-9.368,3.989-14.353c0.029-0.147,0.054-0.294,0.078-0.442c1.64-10.664,0.655-20.991-2.928-30.696
			c0-0.001,0-0.001,0-0.001c-7.394-20.029-24.816-34.737-49.055-41.414c-22.966-6.325-49.585-4.653-74.951,4.711
			c-9.73,3.591-18.932,8.19-27.348,13.668c-3.447,2.244-5.299,6.266-4.763,10.344c1.311,9.968,3.794,19.948,7.381,29.664
			c9.365,25.366,25.391,46.685,45.125,60.029c13.803,9.334,28.339,14.099,42.406,14.099c7.158,0,14.197-1.235,20.952-3.73
			c9.697-3.579,18.181-9.534,25.217-17.697c1.398-1.622,2.724-3.335,3.989-5.113c15.456,10.158,30.19,21.556,44.154,34.148
			c1.232,17.02,1.928,34.12,2.082,51.29H104.983c-5.899,0-10.681,4.783-10.681,10.681c0,5.898,4.782,10.681,10.681,10.681h147.516
			v11.149l-63.907,63.909h-48.343c-5.899,0-10.681,4.783-10.681,10.681c0,5.898,4.782,10.681,10.681,10.681h26.981l-28.442,28.442
			c-4.171,4.171-4.171,10.934,0,15.106c2.086,2.085,4.819,3.128,7.553,3.128s5.468-1.044,7.552-3.128l61.907-61.908v28.296
			c0,5.898,4.782,10.681,10.681,10.681s10.681-4.783,10.681-10.681v-49.658l25.893-25.893l46.209,46.209v39.543
			c0,5.898,4.783,10.681,10.681,10.681c5.898,0,10.681-4.783,10.681-10.681v-18.181l33.527,33.526
			c2.086,2.085,4.819,3.128,7.553,3.128c2.733,0,5.466-1.044,7.552-3.128c4.171-4.171,4.171-10.934,0-15.106l-61.121-61.121h29.278
			c5.898,0,10.681-4.783,10.681-10.681c0-5.898-4.783-10.681-10.681-10.681h-50.64l-22.915-22.915v-11.399h110.992
			c5.898,0,10.681-4.783,10.681-10.681c0-5.898-4.783-10.681-10.681-10.681H273.83c-0.166-19.014-0.977-37.948-2.43-56.785
			c0-0.007-0.001-0.014-0.002-0.021c-1.322-17.137-3.182-34.19-5.564-51.15c8.667-13.751,18.2-26.738,28.603-38.887
			C296.023,201.974,297.645,203.176,299.311,204.278z M234.396,98.221c-0.366,0.284-0.764,0.546-1.147,0.818
			c-3.898-11.914-8.073-23.757-12.526-35.522c-2.088-5.517-8.251-8.298-13.77-6.209c-5.518,2.088-8.297,8.253-6.209,13.771
			c4.442,11.738,8.597,23.556,12.472,35.446c-4.767,0.406-9.27-0.272-13.391-2.04c-9.203-3.949-15.801-13.062-18.581-25.657
			c-3.063-13.883-1.132-29.962,5.439-45.277c1.62-3.775,3.479-7.398,5.556-10.826c3.872,1.055,7.716,2.399,11.488,4.017
			c15.314,6.571,27.793,16.893,35.137,29.066c6.664,11.043,8.159,22.193,4.207,31.398C241.245,91.467,238.326,95.172,234.396,98.221
			z M199.126,224.774c-0.471,2.354-1.058,4.635-1.721,6.858c-21.592-12.303-44.368-22.477-68.21-30.432
			c-5.593-1.866-11.644,1.154-13.513,6.749c-1.867,5.596,1.156,11.645,6.75,13.513c22.933,7.654,44.813,17.504,65.543,29.42
			c-0.621,0.822-1.256,1.624-1.916,2.39c-4.644,5.389-10.173,9.292-16.435,11.604c-13.396,4.951-29.02,2.099-43.991-8.026
			c-16.063-10.862-29.221-28.524-37.051-49.733c-2.221-6.014-3.939-12.135-5.135-18.271c5.434-3.076,11.203-5.745,17.223-7.968
			c21.208-7.83,43.184-9.306,61.879-4.156c17.423,4.8,29.742,14.822,34.689,28.219v-0.001
			C199.529,211.142,200.164,217.813,199.126,224.774z M289.648,147.461c1.009-12.742,9.227-24.387,23.139-32.792
			c15.042-9.086,34.586-13.197,55.045-11.578c5.588,0.442,11.076,1.304,16.388,2.57c0.414,5.451,0.402,11.007-0.041,16.592
			c-1.621,20.455-8.758,39.112-20.101,52.534c-10.49,12.413-23.275,18.7-36.029,17.685c-5.942-0.471-11.641-2.49-16.944-6.003
			c-0.738-0.488-1.464-1.013-2.184-1.557c15.119-15.462,31.747-29.404,49.833-41.691c4.879-3.315,6.148-9.957,2.833-14.837
			c-3.315-4.88-9.957-6.148-14.837-2.833c-18.777,12.755-36.079,27.183-51.854,43.148c-0.718-1.217-1.414-2.459-2.072-3.746
			C290.251,159.22,289.183,153.335,289.648,147.461z"/>
	</g>
</g>
<g>
	<g>
		<path d="M440.246,347.541h-15.948c-5.898,0-10.681,4.783-10.681,10.681c0,5.898,4.783,10.681,10.681,10.681h15.948
			c5.898,0,10.681-4.783,10.681-10.681C450.927,352.324,446.144,347.541,440.246,347.541z"/>
	</g>
</g>
<g>
</g>
<g>
</g>
<g>
</g>
<g>
</g>
<g>
</g>
<g>
</g>
<g>
</g>
<g>
</g>
<g>
</g>
<g>
</g>
<g>
</g>
<g>
</g>
<g>
</g>
<g>
</g>
<g>
</g>
</svg>
