<svg id="Capa_1" enable-background="new 0 0 512 512" height="512" viewBox="0 0 512 512" width="512" xmlns="http://www.w3.org/2000/svg"><g><circle cx="378.786" cy="372.944" r="10"/><path d="m501.908 194.637h-137.561c-43.378 0-84.376 16.666-115.45 46.925l-85.983 80.879c-10.42 9.8-14.628 24.304-11.844 37.804l-108.68-2.182c-22.045-.374-40.642 16.546-42.273 38.564-1.644 22.193 14.372 41.702 36.461 44.413l173.719 21.318c.408.05.818.075 1.229.075 49.346 0 97.289-17.532 134.994-49.365 1.92-1.621 4.247-3.176 5.757-5.209 2.758-3.71 2.585-8.996-.394-12.525-2.896-3.43-7.864-4.53-11.937-2.65-2.413 1.114-4.435 3.263-6.447 4.961-33.914 28.631-76.994 44.459-121.365 44.603l-173.098-21.242c-11.384-1.397-19.638-11.451-18.791-22.888.831-11.219 10.193-19.879 21.377-19.879.128 0 .258.002.386.004l120.1 2.412c7.648 7.669 17.902 11.828 28.431 11.828 6.779 0 13.668-1.719 20.037-5.321l76.537-43.285c11.358-6.423 1.421-23.993-9.936-17.568l-76.537 43.285c-9.655 5.46-21.688 2.285-27.395-7.226-4.875-8.125-3.404-18.733 3.498-25.225l86.048-80.94c.044-.041.088-.083.131-.125 27.291-26.605 63.311-41.257 101.426-41.257h127.469v101.157l-57.893-.001c-2.372 0-4.669.836-6.485 2.359l-20.3 17.026c-4.27 3.581-4.829 9.947-1.248 14.217 3.583 4.271 9.947 4.829 14.217 1.248l17.487-14.667 64.313.001c2.677 0 5.243-1.063 7.136-2.956 1.892-1.893 2.956-4.46 2.956-7.136v-121.34c0-5.573-4.519-10.092-10.092-10.092z"/><path d="m35.676 190.612 92.612 92.612c4.758 3.941 9.515 3.941 14.273 0l93.956-93.956c19.975-19.976 31.273-42.518 32.67-65.191 1.284-20.828-5.831-40.122-20.037-54.328-14.205-14.205-33.5-21.316-54.328-20.037-20.012 1.234-39.924 10.182-58.058 26.002-18.13-15.777-38.1-24.616-58.236-25.688-20.903-1.11-40.311 6.182-54.669 20.541-14.358 14.359-21.652 33.774-20.54 54.669 1.215 22.816 12.404 45.423 32.357 65.376zm2.456-105.772c9.566-9.567 22.359-14.739 36.292-14.739 1.005 0 2.016.028 3.032.082 17.761.945 35.804 10.1 52.177 26.474 3.941 3.94 10.331 3.94 14.273 0 35.592-35.593 72.107-31.5 90.973-12.634 26.913 26.912 12.317 66.023-12.634 90.973l-86.819 86.819-85.477-85.475c-35.493-35.493-31.006-72.312-11.817-91.5z"/></g></svg>